<svg width="37" height="37" viewBox="0 0 37 37" fill="none" xmlns="http://www.w3.org/2000/svg">
<path d="M27.9399 25.8223C27.2295 26.6969 25.89 26.8619 24.9974 26.1872C24.1059 25.5192 23.95 24.2243 24.6545 23.3574L30.7249 15.9044C31.4411 15.0221 32.76 14.8604 33.6674 15.5395C34.5599 16.2142 34.7217 17.5014 34.0103 18.3694L27.9399 25.8223Z" fill="#FF892A"/>
<path fill-rule="evenodd" clip-rule="evenodd" d="M24.654 23.3572C23.9495 24.2241 24.1054 25.5191 24.9969 26.1871C25.8895 26.8617 27.229 26.6968 27.9394 25.8222L34.0098 18.3692C34.7212 17.5012 34.5594 16.214 33.6669 15.5394C32.7595 14.8603 31.4406 15.0219 30.7244 15.9043L24.654 23.3572ZM28.0949 25.9485L34.1648 18.4963C34.1649 18.4962 34.165 18.4961 34.165 18.496C34.9492 17.539 34.7698 16.1219 33.7877 15.3795L33.787 15.3789L33.787 15.3789C32.7935 14.6354 31.353 14.812 30.5689 15.7779C30.5689 15.7779 30.5689 15.7779 30.5688 15.778L24.4986 23.2307L24.4985 23.2308C23.7229 24.1852 23.8935 25.6102 24.8762 26.3471C25.8556 27.0872 27.3171 26.9062 28.0949 25.9485Z" fill="#FF892A"/>
<path d="M12.6781 14.2913C11.9667 15.1593 10.6282 15.3309 9.73565 14.6562C8.84417 13.9882 8.69405 12.6856 9.39271 11.8264L15.4632 4.37345C16.1794 3.49111 17.4982 3.32943 18.4056 4.00854C19.313 4.68764 19.4647 5.95603 18.7485 6.83838C18.7485 6.83838 12.6908 14.2825 12.6781 14.2913Z" fill="#FF892A"/>
<path fill-rule="evenodd" clip-rule="evenodd" d="M18.749 6.83823C19.4652 5.95589 19.3134 4.6875 18.4061 4.00839C17.4987 3.32929 16.1798 3.49097 15.4636 4.37331L9.39317 11.8263C8.69451 12.6854 8.84463 13.9881 9.73611 14.6561C10.6286 15.3308 11.9671 15.1592 12.6785 14.2912C12.6913 14.2824 18.749 6.83823 18.749 6.83823ZM12.8311 14.4212L12.8321 14.4201L12.8373 14.414L12.8517 14.3966L12.9038 14.333C12.949 14.2779 13.0149 14.1974 13.0983 14.0952C13.2652 13.8907 13.5029 13.5991 13.7878 13.2495C14.3575 12.5504 15.116 11.619 15.874 10.6879C16.632 9.75686 17.3896 8.82606 17.9577 8.12803L18.9042 6.96507C18.9042 6.96501 18.9044 6.96473 18.749 6.83823L18.9042 6.96507L18.9046 6.96454C19.6918 5.99479 19.5256 4.59594 18.5261 3.84794C17.5327 3.10445 16.0922 3.28101 15.3081 4.24689C15.3081 4.24685 15.3081 4.24693 15.3081 4.24689L9.23778 11.6997C8.46823 12.646 8.63222 14.0794 9.61593 14.8165C10.5951 15.5561 12.0525 15.3678 12.8311 14.4212Z" fill="#FF892A"/>
<path d="M21.9424 21.2942C21.7941 21.4742 21.6696 21.6708 21.5658 21.8642L14.8826 16.8501C15.058 16.7067 15.2233 16.5444 15.3717 16.3644L21.449 8.91032C21.5963 8.72369 21.7287 8.53261 21.8245 8.33373L28.5077 13.3478C28.3334 13.4979 28.1681 13.6602 28.0198 13.8402L21.9493 21.2931L21.9424 21.2942Z" fill="#FF892A"/>
<path fill-rule="evenodd" clip-rule="evenodd" d="M21.6662 21.6881C21.7475 21.5531 21.8394 21.4194 21.9429 21.2938L21.9498 21.2927L28.0203 13.8397C28.1248 13.7129 28.2377 13.5949 28.3562 13.4838C28.406 13.4372 28.4567 13.3917 28.5082 13.3473L21.8251 8.33329C21.7961 8.3934 21.7638 8.4528 21.7287 8.51158C21.6478 8.64727 21.5523 8.77965 21.4495 8.90988L15.3722 16.3639C15.2684 16.4899 15.1562 16.6072 15.0382 16.7154C14.9875 16.7619 14.9358 16.8066 14.8832 16.8497L21.5663 21.8637C21.5977 21.8053 21.631 21.7466 21.6662 21.6881ZM15.2175 16.2365L21.2932 8.78448C21.4358 8.60364 21.5579 8.42601 21.6445 8.2463L21.7503 8.02667L28.8279 13.3366L28.639 13.4992C28.4714 13.6435 28.3147 13.7976 28.1753 13.9667C28.1752 13.9669 28.1751 13.967 28.1749 13.9672L22.0569 21.4786L22.0509 21.4796C21.9328 21.6312 21.8307 21.7949 21.7429 21.9585L21.6326 22.164L14.5583 16.8565L14.7562 16.6946C14.922 16.559 15.0777 16.406 15.2172 16.2369C15.2173 16.2368 15.2174 16.2366 15.2175 16.2365Z" fill="#FF892A"/>
<path d="M5.66015 27.872L12.5065 20.983C12.7569 20.7324 13.1625 20.702 13.443 20.9092L17.8219 24.2005C18.1035 24.4143 18.1715 24.7981 17.9768 25.0875C17.9768 25.0875 12.6647 33.1276 12.6658 33.1342C11.2568 35.2693 8.15113 35.8098 6.10247 34.271C4.05382 32.7322 3.84916 29.7036 5.66121 27.8786L5.66015 27.872Z" fill="#FF892A"/>
<path fill-rule="evenodd" clip-rule="evenodd" d="M5.44707 27.8109C3.62761 29.7279 3.8618 32.8389 5.98162 34.4311C8.12265 36.0393 11.36 35.4759 12.8326 33.2444L12.8754 33.1795L12.8753 33.1786L12.8924 33.1525C12.9311 33.0934 12.988 33.0068 13.0606 32.8966C13.2057 32.6762 13.4131 32.3616 13.662 31.9843C14.1598 31.2297 14.8237 30.2241 15.4877 29.2186C16.1516 28.2132 16.8156 27.208 17.3136 26.4542L18.1426 25.1993C18.3984 24.819 18.3062 24.3168 17.9426 24.0408L17.9418 24.0402L13.5616 20.7478C13.2005 20.4812 12.6841 20.521 12.3642 20.8412L12.3639 20.8416L5.44578 27.8028L5.44707 27.8109ZM5.66072 27.8785C3.84867 29.7034 4.05333 32.7321 6.10198 34.2709C8.15064 35.8096 11.2563 35.2692 12.6653 33.134C12.6642 33.1274 17.9763 25.0873 17.9763 25.0873C18.171 24.798 18.103 24.4142 17.8214 24.2004L13.4425 20.909C13.162 20.7019 12.7564 20.7322 12.506 20.9828L5.65967 27.8719L5.66072 27.8785Z" fill="#FF892A"/>
<path d="M30 36.001C33.3137 36.001 36 33.3147 36 30.001C36 26.6873 33.3137 24.001 30 24.001C26.6863 24.001 24 26.6873 24 30.001C24 33.3147 26.6863 36.001 30 36.001Z" fill="#52ACBC"/>
<path fill-rule="evenodd" clip-rule="evenodd" d="M27.1503 31.4365C26.7598 31.827 26.7598 32.4602 27.1503 32.8507C27.5408 33.2413 28.174 33.2413 28.5645 32.8507L30.0003 31.415L31.436 32.8507C31.8266 33.2413 32.4597 33.2413 32.8502 32.8507C33.2408 32.4602 33.2408 31.827 32.8502 31.4365L31.4145 30.0008L32.8502 28.565C33.2408 28.1745 33.2408 27.5413 32.8502 27.1508C32.4597 26.7603 31.8266 26.7603 31.436 27.1508L30.0003 28.5866L28.5645 27.1508C28.174 26.7603 27.5408 26.7603 27.1503 27.1508C26.7598 27.5413 26.7598 28.1745 27.1503 28.565L28.5861 30.0008L27.1503 31.4365Z" fill="white"/>
</svg>
