<svg width="37" height="37" viewBox="0 0 37 37" fill="none" xmlns="http://www.w3.org/2000/svg">
<path d="M15.2458 25.5502C14.9002 25.3463 14.5627 25.1262 14.2385 24.8936C13.9577 24.6922 13.6918 24.4839 13.4365 24.2699L12.5226 25.532L14.3347 26.8083L15.2458 25.5502Z" fill="#FF892A" stroke="#FF892A"/>
<path d="M13.4767 7.94528L13.3557 8.11249L13.3528 8.11295C10.4512 12.2842 10.9821 17.8355 14.4015 21.3816C14.5036 21.4867 14.6117 21.5919 14.7259 21.7029C14.8391 21.8083 14.9468 21.9085 15.0589 22.0073L15.0594 22.0076C15.3102 22.229 15.5765 22.4388 15.8535 22.6376C16.1889 22.8733 16.5218 23.0886 16.8635 23.2788C16.9064 23.3019 16.9462 23.3238 16.9841 23.3446C17.0806 23.3976 17.1647 23.4438 17.2551 23.4869L17.2616 23.49L17.268 23.4932C17.3613 23.5411 17.4529 23.5841 17.5517 23.6305C17.5937 23.6502 17.637 23.6705 17.6822 23.692C22.1711 25.7181 27.6286 24.3818 30.6267 20.242L30.6269 20.2417C34.0474 15.5248 32.9805 8.94797 28.2423 5.54913L28.2421 5.54894C23.5084 2.14869 16.898 3.2211 13.4767 7.94528ZM17.4343 20.4735L17.4339 20.4732C13.9063 17.9375 13.1073 13.0175 15.6537 9.50133C16.8883 7.79658 18.7113 6.67196 20.7925 6.33421C22.8738 5.99647 24.9589 6.48688 26.6692 7.71375L26.6696 7.71403C30.1972 10.2497 30.9961 15.1698 28.4497 18.6859C27.2152 20.3907 25.3922 21.5153 23.3109 21.853C21.2296 22.1908 19.1446 21.7004 17.4343 20.4735Z" fill="#FF892A" stroke="#FF892A"/>
<mask id="path-3-inside-1_4103_27764" fill="white">
<path d="M12.6979 7.37872C14.5008 4.88918 17.1688 3.24449 20.2113 2.75075C23.2539 2.25701 26.3106 2.97269 28.8083 4.76433C33.9654 8.46858 35.1329 15.6627 31.4109 20.8022C29.608 23.2917 26.94 24.9364 23.8919 25.4311C21.5754 25.807 19.2531 25.4817 17.174 24.5168C17.0322 24.4492 16.8904 24.3816 16.7533 24.3076C16.6162 24.2336 16.479 24.1596 16.3419 24.0856C15.9848 23.8831 15.6352 23.6567 15.295 23.4175C15.0053 23.2097 14.7313 22.9937 14.4667 22.7648C14.3481 22.6652 14.2342 22.5591 14.1203 22.453C14.0064 22.3469 13.8916 22.2353 13.7832 22.1283C12.1286 20.449 11.0364 18.3104 10.6514 15.9381C10.1599 12.9093 10.8839 9.87005 12.6859 7.375L12.6979 7.37872ZM14.3215 21.3445C14.4794 21.5114 14.6484 21.6765 14.8165 21.8361C15.138 22.135 15.479 22.4137 15.845 22.6714C16.3278 23.0177 16.8256 23.3163 17.3513 23.5764C17.494 23.6495 17.6413 23.7162 17.7822 23.7782C19.6378 24.5926 21.6945 24.859 23.7506 24.5254C26.5493 24.0712 29.0053 22.5572 30.6642 20.2665C34.0823 15.5331 33.0089 8.91824 28.2646 5.51504C25.9665 3.86654 23.1577 3.20689 20.3591 3.66105C17.5604 4.11522 15.1043 5.62925 13.4455 7.91988C11.7866 10.2105 11.1201 13.0082 11.5723 15.7943C11.9152 17.9073 12.8691 19.8249 14.316 21.3454L14.3215 21.3445Z"/>
</mask>
<path d="M12.6979 7.37872C14.5008 4.88918 17.1688 3.24449 20.2113 2.75075C23.2539 2.25701 26.3106 2.97269 28.8083 4.76433C33.9654 8.46858 35.1329 15.6627 31.4109 20.8022C29.608 23.2917 26.94 24.9364 23.8919 25.4311C21.5754 25.807 19.2531 25.4817 17.174 24.5168C17.0322 24.4492 16.8904 24.3816 16.7533 24.3076C16.6162 24.2336 16.479 24.1596 16.3419 24.0856C15.9848 23.8831 15.6352 23.6567 15.295 23.4175C15.0053 23.2097 14.7313 22.9937 14.4667 22.7648C14.3481 22.6652 14.2342 22.5591 14.1203 22.453C14.0064 22.3469 13.8916 22.2353 13.7832 22.1283C12.1286 20.449 11.0364 18.3104 10.6514 15.9381C10.1599 12.9093 10.8839 9.87005 12.6859 7.375L12.6979 7.37872ZM14.3215 21.3445C14.4794 21.5114 14.6484 21.6765 14.8165 21.8361C15.138 22.135 15.479 22.4137 15.845 22.6714C16.3278 23.0177 16.8256 23.3163 17.3513 23.5764C17.494 23.6495 17.6413 23.7162 17.7822 23.7782C19.6378 24.5926 21.6945 24.859 23.7506 24.5254C26.5493 24.0712 29.0053 22.5572 30.6642 20.2665C34.0823 15.5331 33.0089 8.91824 28.2646 5.51504C25.9665 3.86654 23.1577 3.20689 20.3591 3.66105C17.5604 4.11522 15.1043 5.62925 13.4455 7.91988C11.7866 10.2105 11.1201 13.0082 11.5723 15.7943C11.9152 17.9073 12.8691 19.8249 14.316 21.3454L14.3215 21.3445Z" fill="#FF892A"/>
<path d="M12.6979 7.37872L13.5078 7.96525L13.0868 8.54655L12.4014 8.33375L12.6979 7.37872ZM28.8083 4.76433L29.3912 3.95177L29.3917 3.95214L28.8083 4.76433ZM17.174 24.5168L16.753 25.4239L16.7437 25.4195L17.174 24.5168ZM16.3419 24.0856L15.867 24.9656L15.8577 24.9606L15.8485 24.9554L16.3419 24.0856ZM15.295 23.4175L14.7198 24.2356L14.7121 24.23L15.295 23.4175ZM14.4667 22.7648L15.1102 21.9993L15.1208 22.0084L14.4667 22.7648ZM13.7832 22.1283L13.0806 22.84L13.0709 22.8302L13.7832 22.1283ZM12.6859 7.375L11.8752 6.7895L12.296 6.20687L12.9824 6.41996L12.6859 7.375ZM14.3215 21.3445L14.1613 20.3574L14.684 20.2726L15.0479 20.6572L14.3215 21.3445ZM14.8165 21.8361L14.1356 22.5685L14.128 22.5613L14.8165 21.8361ZM15.845 22.6714L16.4207 21.8537L16.4279 21.8588L15.845 22.6714ZM17.3513 23.5764L17.7948 22.68L17.8073 22.6864L17.3513 23.5764ZM17.7822 23.7782L17.3804 24.6939L17.3791 24.6934L17.7822 23.7782ZM30.6642 20.2665L31.4749 20.852L31.4741 20.8531L30.6642 20.2665ZM14.316 21.3454L14.4762 22.3325L13.9553 22.417L13.5915 22.0348L14.316 21.3454ZM11.888 6.79218C13.8462 4.08814 16.748 2.2997 20.0512 1.76367L20.3715 3.73784C17.5896 4.18929 15.1554 5.69023 13.5078 7.96525L11.888 6.79218ZM20.0512 1.76367C23.3538 1.22772 26.6779 2.00545 29.3912 3.95177L28.2254 5.57689C25.9434 3.93992 23.1539 3.28631 20.3715 3.73784L20.0512 1.76367ZM29.3917 3.95214C34.9981 7.97912 36.2679 15.8002 32.2208 21.3887L30.601 20.2157C33.9978 15.5252 32.9327 8.95804 28.2249 5.57653L29.3917 3.95214ZM32.2208 21.3887C30.2624 24.093 27.3605 25.8813 24.0521 26.4181L23.7317 24.444C26.5194 23.9916 28.9536 22.4905 30.601 20.2157L32.2208 21.3887ZM24.0521 26.4181C21.5389 26.826 19.0142 26.4733 16.753 25.4238L17.595 23.6097C19.492 24.4901 21.6118 24.788 23.7317 24.444L24.0521 26.4181ZM16.7437 25.4195C16.6059 25.3537 16.4413 25.2755 16.2784 25.1877L17.2282 23.4276C17.3396 23.4877 17.4586 23.5446 17.6043 23.6141L16.7437 25.4195ZM16.2784 25.1877C16.2098 25.1507 16.1413 25.1136 16.0727 25.0766C16.0041 25.0396 15.9356 25.0026 15.867 24.9656L16.8168 23.2055C16.8853 23.2425 16.9539 23.2795 17.0225 23.3166C17.091 23.3536 17.1596 23.3906 17.2282 23.4276L16.2784 25.1877ZM15.8485 24.9554C15.4575 24.7337 15.0803 24.489 14.7198 24.2355L15.8701 22.5994C16.1901 22.8244 16.5121 23.0325 16.8352 23.2158L15.8485 24.9554ZM14.7121 24.23C14.398 24.0047 14.1003 23.77 13.8126 23.5213L15.1208 22.0084C15.3624 22.2173 15.6125 22.4146 15.8778 22.6049L14.7121 24.23ZM13.8232 23.5303C13.6819 23.4115 13.5495 23.2879 13.4388 23.1848L14.8018 21.7212C14.9189 21.8302 15.0143 21.9188 15.1102 21.9994L13.8232 23.5303ZM13.4388 23.1848C13.3148 23.0693 13.1923 22.9502 13.0807 22.84L14.4858 21.4167C14.5908 21.5204 14.698 21.6245 14.8018 21.7212L13.4388 23.1848ZM13.0709 22.8302C11.2706 21.0031 10.0825 18.6751 9.66432 16.0983L11.6385 15.7779C11.9903 17.9457 12.9865 19.895 14.4955 21.4265L13.0709 22.8302ZM9.66432 16.0983C9.13002 12.8057 9.91869 9.49852 11.8752 6.7895L13.4966 7.96049C11.8491 10.2416 11.1898 13.0128 11.6385 15.7779L9.66432 16.0983ZM12.9824 6.41996L12.9944 6.42368L12.4014 8.33375L12.3894 8.33003L12.9824 6.41996ZM15.0479 20.6572C15.1884 20.8057 15.343 20.957 15.505 21.1108L14.128 22.5613C13.9538 22.396 13.7705 22.2171 13.5951 22.0318L15.0479 20.6572ZM15.4973 21.1037C15.7875 21.3733 16.0935 21.6233 16.4207 21.8537L15.2694 23.4891C14.8646 23.2041 14.4886 22.8966 14.1356 22.5685L15.4973 21.1037ZM16.4279 21.8588C16.8666 22.1735 17.3177 22.4441 17.7948 22.6801L16.9078 24.4727C16.3335 24.1885 15.7891 23.8619 15.2622 23.4839L16.4279 21.8588ZM17.8073 22.6864C17.9232 22.7458 18.049 22.803 18.1854 22.8631L17.3791 24.6934C17.2337 24.6293 17.0648 24.5532 16.8953 24.4664L17.8073 22.6864ZM18.1841 22.8625C19.8622 23.599 21.7237 23.8412 23.5904 23.5383L23.9108 25.5125C21.6654 25.8768 19.4134 25.5862 17.3804 24.6939L18.1841 22.8625ZM23.5904 23.5383C26.1284 23.1264 28.3507 21.7562 29.8543 19.68L31.4741 20.8531C29.6599 23.3582 26.9701 25.016 23.9108 25.5125L23.5904 23.5383ZM29.8535 19.6811C32.948 15.3958 31.9756 9.40771 27.6817 6.3276L28.8475 4.70248C34.0421 8.42877 35.2166 15.6704 31.4749 20.852L29.8535 19.6811ZM27.6817 6.3276C25.5988 4.83345 23.0573 4.23627 20.5193 4.64814L20.1989 2.67397C23.2582 2.1775 26.3342 2.89964 28.8475 4.70248L27.6817 6.3276ZM20.5193 4.64814C17.9812 5.06001 15.7589 6.43026 14.2554 8.50642L12.6356 7.33334C14.4497 4.82824 17.1396 3.17043 20.1989 2.67397L20.5193 4.64814ZM14.2554 8.50642C12.752 10.5824 12.15 13.1116 12.5594 15.6341L10.5852 15.9545C10.0903 12.9049 10.8213 9.83861 12.6356 7.33334L14.2554 8.50642ZM12.5594 15.6341C12.8702 17.5497 13.7333 19.2825 15.0404 20.6561L13.5915 22.0348C12.0048 20.3673 10.9601 18.2649 10.5852 15.9545L12.5594 15.6341ZM14.1558 20.3583L14.1613 20.3574L14.4817 22.3316L14.4762 22.3325L14.1558 20.3583Z" fill="#FF892A" mask="url(#path-3-inside-1_4103_27764)"/>
<path d="M9.45835 27.6166L9.45746 27.6111L6.53419 31.6477C6.09261 32.2574 6.23061 33.1078 6.84235 33.5466L8.47097 34.7149C9.08414 35.1547 9.94221 35.0155 10.3848 34.4043L14.0278 29.3739C14.4733 28.7588 14.3277 27.8969 13.7065 27.4655L13.706 27.4651L12.065 26.3221C12.0649 26.322 12.0648 26.322 12.0647 26.3219C11.4473 25.8935 10.6028 26.0363 10.1641 26.6421L9.45835 27.6166Z" fill="#FF892A" stroke="#FF892A"/>
<mask id="path-6-inside-2_4103_27764" fill="white">
<path d="M5.75528 31.0863L9.38431 26.0751C9.75139 25.5682 10.2893 25.2375 10.9044 25.1376C11.1427 25.099 11.3873 25.0989 11.6197 25.1291C11.7829 25.1536 11.9433 25.1955 12.1008 25.2549C12.2464 25.3106 12.3882 25.3781 12.5216 25.4641C12.5537 25.4872 12.585 25.5047 12.6172 25.5278L14.2589 26.6713C14.3095 26.7028 14.3554 26.7406 14.3958 26.7793C14.5199 26.8781 14.6292 26.9906 14.7283 27.1104C14.8347 27.2404 14.9254 27.3785 15.0003 27.5249C15.1073 27.7284 15.1781 27.9547 15.2157 28.1864C15.316 28.8043 15.1717 29.4223 14.8055 29.9347L11.1625 34.9651C10.801 35.4711 10.2576 35.8027 9.64244 35.9026C9.02729 36.0024 8.41243 35.8587 7.90389 35.4939L6.27527 34.3256C5.23244 33.5776 4.99608 32.1211 5.74884 31.0816L5.75528 31.0863ZM10.4158 34.4294L14.0588 29.399C14.2818 29.0911 14.3695 28.7201 14.3031 28.3458C14.27 28.1417 14.1934 27.9503 14.0761 27.7881C14.0743 27.7771 14.0679 27.7725 14.0605 27.7624C13.9716 27.6352 13.8568 27.5236 13.7226 27.4322L12.0809 26.2887C11.953 26.2018 11.8168 26.1334 11.6675 26.0896C11.4712 26.0366 11.2645 26.0248 11.0595 26.0581C10.6882 26.1183 10.3623 26.3184 10.1439 26.62L6.51487 31.6311C6.0595 32.2599 6.20185 33.1371 6.83181 33.5842L8.46042 34.7524C8.76297 34.9694 9.13539 35.0562 9.5067 34.996C9.87801 34.9357 10.2039 34.7356 10.4223 34.434L10.4158 34.4294Z"/>
</mask>
<path d="M5.75528 31.0863L9.38431 26.0751C9.75139 25.5682 10.2893 25.2375 10.9044 25.1376C11.1427 25.099 11.3873 25.0989 11.6197 25.1291C11.7829 25.1536 11.9433 25.1955 12.1008 25.2549C12.2464 25.3106 12.3882 25.3781 12.5216 25.4641C12.5537 25.4872 12.585 25.5047 12.6172 25.5278L14.2589 26.6713C14.3095 26.7028 14.3554 26.7406 14.3958 26.7793C14.5199 26.8781 14.6292 26.9906 14.7283 27.1104C14.8347 27.2404 14.9254 27.3785 15.0003 27.5249C15.1073 27.7284 15.1781 27.9547 15.2157 28.1864C15.316 28.8043 15.1717 29.4223 14.8055 29.9347L11.1625 34.9651C10.801 35.4711 10.2576 35.8027 9.64244 35.9026C9.02729 36.0024 8.41243 35.8587 7.90389 35.4939L6.27527 34.3256C5.23244 33.5776 4.99608 32.1211 5.74884 31.0816L5.75528 31.0863ZM10.4158 34.4294L14.0588 29.399C14.2818 29.0911 14.3695 28.7201 14.3031 28.3458C14.27 28.1417 14.1934 27.9503 14.0761 27.7881C14.0743 27.7771 14.0679 27.7725 14.0605 27.7624C13.9716 27.6352 13.8568 27.5236 13.7226 27.4322L12.0809 26.2887C11.953 26.2018 11.8168 26.1334 11.6675 26.0896C11.4712 26.0366 11.2645 26.0248 11.0595 26.0581C10.6882 26.1183 10.3623 26.3184 10.1439 26.62L6.51487 31.6311C6.0595 32.2599 6.20185 33.1371 6.83181 33.5842L8.46042 34.7524C8.76297 34.9694 9.13539 35.0562 9.5067 34.996C9.87801 34.9357 10.2039 34.7356 10.4223 34.434L10.4158 34.4294Z" fill="#FF892A"/>
<path d="M5.75528 31.0863L6.5652 31.6728L5.9813 32.4791L5.1724 31.8988L5.75528 31.0863ZM9.38431 26.0751L8.57438 25.4886L8.57438 25.4886L9.38431 26.0751ZM11.6197 25.1291L11.7487 24.1375L11.7583 24.1388L11.768 24.1402L11.6197 25.1291ZM12.1008 25.2549L12.4535 24.3192L12.458 24.3209L12.1008 25.2549ZM12.5216 25.4641L13.0631 24.6234L13.0841 24.637L13.1044 24.6515L12.5216 25.4641ZM12.6172 25.5278L12.0456 26.3485L12.0343 26.3404L12.6172 25.5278ZM14.2589 26.6713L13.7313 27.5209L13.7089 27.507L13.6873 27.4919L14.2589 26.6713ZM14.3958 26.7793L13.7731 27.5618L13.7371 27.5331L13.7039 27.5012L14.3958 26.7793ZM14.7283 27.1104L15.499 26.4732L15.502 26.4769L14.7283 27.1104ZM15.0003 27.5249L14.1151 27.9903L14.1102 27.9806L15.0003 27.5249ZM14.8055 29.9347L15.6191 30.5161L15.6154 30.5212L14.8055 29.9347ZM11.1625 34.9651L10.3489 34.3837L10.3526 34.3785L11.1625 34.9651ZM7.90389 35.4939L8.48677 34.6813L8.48677 34.6813L7.90389 35.4939ZM6.27527 34.3256L5.6924 35.1382L5.6924 35.1382L6.27527 34.3256ZM5.74884 31.0816L4.93892 30.4951L5.52282 29.6888L6.33172 30.2691L5.74884 31.0816ZM10.4158 34.4294L9.83295 35.242L9.01672 34.6565L9.60591 33.8429L10.4158 34.4294ZM14.3031 28.3458L13.3185 28.5206L13.3172 28.5133L13.316 28.506L14.3031 28.3458ZM14.0761 27.7881L13.2659 28.3743L13.127 28.1823L13.089 27.9483L14.0761 27.7881ZM14.0605 27.7624L13.2503 28.3485L13.2456 28.342L13.241 28.3354L14.0605 27.7624ZM13.7226 27.4322L13.1596 28.2587L13.151 28.2527L13.7226 27.4322ZM12.0809 26.2887L12.6428 25.4614L12.6524 25.4681L12.0809 26.2887ZM11.6675 26.0896L11.9285 25.1243L11.9386 25.127L11.9485 25.1299L11.6675 26.0896ZM10.1439 26.62L9.33398 26.0335L9.33398 26.0335L10.1439 26.62ZM6.51487 31.6311L7.32479 32.2177L7.32479 32.2177L6.51487 31.6311ZM6.83181 33.5842L7.41052 32.7686L7.41468 32.7716L6.83181 33.5842ZM8.46042 34.7524L7.87755 35.565L8.46042 34.7524ZM10.4223 34.434L11.0051 33.6215L11.8214 34.207L11.2322 35.0206L10.4223 34.434ZM4.94536 30.4997L8.57438 25.4886L10.1942 26.6617L6.5652 31.6728L4.94536 30.4997ZM8.57438 25.4886C9.0967 24.7673 9.86828 24.2927 10.7442 24.1506L11.0646 26.1247C10.7102 26.1822 10.4061 26.3691 10.1942 26.6617L8.57438 25.4886ZM10.7442 24.1506C11.0871 24.0949 11.4296 24.096 11.7487 24.1375L11.4907 26.1208C11.345 26.1018 11.1983 26.103 11.0646 26.1247L10.7442 24.1506ZM11.768 24.1402C12.0024 24.1753 12.2312 24.2354 12.4535 24.3192L11.7481 26.1906C11.6554 26.1557 11.5635 26.1319 11.4714 26.1181L11.768 24.1402ZM12.458 24.3209C12.6528 24.3954 12.8594 24.4922 13.0631 24.6234L11.98 26.3047C11.9169 26.2641 11.8399 26.2258 11.7437 26.1889L12.458 24.3209ZM13.1044 24.6515C13.0959 24.6454 13.09 24.6419 13.1088 24.6539C13.1218 24.6622 13.1594 24.686 13.2001 24.7153L12.0343 26.3404C12.0429 26.3465 12.0487 26.35 12.03 26.338C12.017 26.3297 11.9794 26.3059 11.9387 26.2766L13.1044 24.6515ZM13.1888 24.7073L14.8304 25.8508L13.6873 27.4919L12.0457 26.3484L13.1888 24.7073ZM14.7864 25.8218C14.9101 25.8986 15.0107 25.9835 15.0878 26.0574L13.7039 27.5012C13.7027 27.5002 13.704 27.5015 13.7078 27.5045C13.7116 27.5075 13.7193 27.5134 13.7313 27.5209L14.7864 25.8218ZM15.0186 25.9969C15.2083 26.1479 15.3661 26.3125 15.4989 26.4732L13.9576 27.7477C13.8924 27.6687 13.8316 27.6083 13.7731 27.5618L15.0186 25.9969ZM15.502 26.4769C15.6524 26.6606 15.7824 26.8582 15.8904 27.0692L14.1102 27.9806C14.0683 27.8988 14.0169 27.8201 13.9546 27.744L15.502 26.4769ZM15.8855 27.0596C16.049 27.3708 16.1503 27.7025 16.2028 28.0262L14.2286 28.3466C14.206 28.207 14.1655 28.086 14.1152 27.9902L15.8855 27.0596ZM16.2028 28.0262C16.3454 28.9051 16.1384 29.7895 15.6191 30.5161L13.9919 29.3532C14.205 29.055 14.2866 28.7035 14.2286 28.3466L16.2028 28.0262ZM15.6154 30.5212L11.9725 35.5516L10.3526 34.3785L13.9956 29.3481L15.6154 30.5212ZM11.9762 35.5464C11.4561 36.2743 10.6749 36.7481 9.80263 36.8896L9.48226 34.9155C9.84027 34.8574 10.1459 34.6678 10.3489 34.3837L11.9762 35.5464ZM9.80263 36.8896C8.92668 37.0318 8.04461 36.8255 7.32101 36.3064L8.48677 34.6813C8.78025 34.8919 9.1279 34.973 9.48226 34.9155L9.80263 36.8896ZM7.32102 36.3064L5.6924 35.1382L6.85815 33.5131L8.48677 34.6813L7.32102 36.3064ZM5.6924 35.1382C4.19937 34.0672 3.86119 31.9833 4.93892 30.4951L6.55876 31.6682C6.13098 32.2589 6.26552 33.088 6.85815 33.5131L5.6924 35.1382ZM6.33172 30.2691L6.33816 30.2737L5.1724 31.8988L5.16596 31.8942L6.33172 30.2691ZM9.60591 33.8429L13.2489 28.8125L14.8687 29.9856L11.2258 35.016L9.60591 33.8429ZM13.2489 28.8125C13.3158 28.72 13.3367 28.623 13.3185 28.5206L15.2877 28.1711C15.4024 28.8172 15.2478 29.4621 14.8687 29.9856L13.2489 28.8125ZM13.316 28.506C13.3059 28.4439 13.2851 28.4008 13.2659 28.3743L14.8863 27.202C15.1017 27.4998 15.234 27.8395 15.2902 28.1857L13.316 28.506ZM13.089 27.9483C13.1025 28.0317 13.1272 28.1142 13.1629 28.1932C13.1975 28.2698 13.2353 28.3267 13.2602 28.3611C13.2804 28.389 13.3009 28.4135 13.2921 28.4027C13.2893 28.3993 13.2711 28.3772 13.2503 28.3485L14.8707 27.1762C14.8618 27.1639 14.8541 27.1539 14.8485 27.1468C14.8457 27.1433 14.8435 27.1405 14.842 27.1386C14.8412 27.1376 14.8406 27.1369 14.8402 27.1364C14.8398 27.1359 14.8395 27.1356 14.8395 27.1356C14.834 27.1288 14.8577 27.1571 14.8806 27.1887C14.9082 27.2269 14.9484 27.2877 14.985 27.3685C15.0227 27.4518 15.0487 27.539 15.0632 27.628L13.089 27.9483ZM13.241 28.3354C13.2263 28.3143 13.2007 28.2867 13.1597 28.2587L14.2854 26.6056C14.5129 26.7606 14.717 26.9561 14.8801 27.1894L13.241 28.3354ZM13.151 28.2527L11.5093 27.1092L12.6524 25.4681L14.2941 26.6116L13.151 28.2527ZM11.519 27.1159C11.4631 27.0779 11.4206 27.0593 11.3865 27.0493L11.9485 25.1299C12.213 25.2074 12.4429 25.3257 12.6427 25.4614L11.519 27.1159ZM11.4065 27.055C11.3454 27.0385 11.2823 27.035 11.2196 27.0452L10.8993 25.071C11.2467 25.0146 11.597 25.0347 11.9285 25.1243L11.4065 27.055ZM11.2196 27.0452C11.1066 27.0635 11.0155 27.1214 10.9538 27.2065L9.33398 26.0335C9.70909 25.5155 10.2697 25.1732 10.8993 25.071L11.2196 27.0452ZM10.9538 27.2065L7.32479 32.2177L5.70495 31.0446L9.33398 26.0335L10.9538 27.2065ZM7.32479 32.2177C7.19272 32.4001 7.238 32.6462 7.41051 32.7686L6.2531 34.3997C5.16571 33.6281 4.92629 32.1198 5.70495 31.0446L7.32479 32.2177ZM7.41468 32.7716L9.0433 33.9399L7.87755 35.565L6.24893 34.3967L7.41468 32.7716ZM9.0433 33.9399C9.12873 34.0011 9.23348 34.0272 9.34652 34.0089L9.66689 35.9831C9.0373 36.0852 8.39721 35.9378 7.87755 35.565L9.0433 33.9399ZM9.34652 34.0089C9.45955 33.9905 9.55068 33.9327 9.61235 33.8475L11.2322 35.0206C10.8571 35.5386 10.2965 35.8809 9.66689 35.9831L9.34652 34.0089ZM9.83939 35.2466L9.83295 35.242L10.9987 33.6169L11.0051 33.6215L9.83939 35.2466Z" fill="#FF892A" mask="url(#path-6-inside-2_4103_27764)"/>
<path fill-rule="evenodd" clip-rule="evenodd" d="M18.8056 16.0653C18.4151 16.4559 18.4151 17.089 18.8056 17.4795C19.1961 17.8701 19.8293 17.8701 20.2198 17.4795L22.1425 15.5568L24.0653 17.4796C24.4559 17.8702 25.089 17.8702 25.4795 17.4796C25.8701 17.0891 25.8701 16.4559 25.4795 16.0654L23.5567 14.1426L25.4795 12.2198C25.8701 11.8293 25.8701 11.1961 25.4795 10.8056C25.089 10.4151 24.4559 10.4151 24.0653 10.8056L22.1425 12.7284L20.2198 10.8057C19.8293 10.4151 19.1961 10.4151 18.8056 10.8057C18.4151 11.1962 18.4151 11.8294 18.8056 12.2199L20.7283 14.1426L18.8056 16.0653Z" fill="#FF892A"/>
<path d="M29 35C32.3137 35 35 32.3137 35 29C35 25.6863 32.3137 23 29 23C25.6863 23 23 25.6863 23 29C23 32.3137 25.6863 35 29 35Z" fill="#52ACBC"/>
<g clip-path="url(#clip0_4103_27764)">
<path d="M29 26C26.0909 26 25 29 25 29C25 29 26.0909 32 29 32C31.9091 32 33 29 33 29C33 29 31.9091 26 29 26ZM29 27.125C30.0036 27.125 30.8182 27.965 30.8182 29C30.8182 30.035 30.0036 30.875 29 30.875C27.9964 30.875 27.1818 30.035 27.1818 29C27.1818 27.965 27.9964 27.125 29 27.125Z" fill="white"/>
</g>
<defs>
<clipPath id="clip0_4103_27764">
<rect width="8" height="6" fill="white" transform="translate(25 26)"/>
</clipPath>
</defs>
</svg>
