<svg width="37" height="37" viewBox="0 0 37 37" fill="none" xmlns="http://www.w3.org/2000/svg">
<path d="M11.8172 25.6467L12.1961 25.9136L14.0713 27.2344L14.4502 27.5013L14.7337 27.1099L15.979 25.3903C15.8418 25.3163 15.7047 25.2423 15.5722 25.1619C15.2142 24.9539 14.8646 24.7275 14.5299 24.4874C14.2402 24.2796 13.9663 24.0636 13.7025 23.8402C13.584 23.7406 13.4654 23.6409 13.3515 23.5348L11.8181 25.6522L11.8172 25.6467Z" fill="#52ACBC"/>
<path d="M13.0718 7.65201C16.6543 2.70503 23.5762 1.58176 28.5338 5.14285C33.4969 8.70305 34.6151 15.5938 31.0316 20.5352C27.8905 24.8727 22.1735 26.2704 17.4718 24.1456C17.33 24.078 17.1827 24.0113 17.04 23.9382C16.8982 23.8706 16.7602 23.7911 16.623 23.7171C16.2604 23.5155 15.9108 23.2891 15.5641 23.0453C15.2744 22.8375 14.9941 22.6169 14.7285 22.3825C14.6091 22.2773 14.4951 22.1712 14.3812 22.0652C14.2664 21.9536 14.1516 21.8419 14.0424 21.7294C10.4111 17.9644 9.88794 12.0417 13.0662 7.65291L13.0718 7.65201ZM17.7257 20.0672C19.3286 21.217 21.2801 21.676 23.2308 21.3595C25.1816 21.0429 26.8878 19.9903 28.0448 18.3926C30.4285 15.1011 29.6809 10.4944 26.3777 8.12003C24.7749 6.97023 22.8234 6.51119 20.8726 6.82776C18.9219 7.14433 17.2157 8.19694 16.0587 9.7946C13.6749 13.0862 14.4225 17.6928 17.7257 20.0672Z" fill="#52ACBC"/>
<path d="M12.6979 7.37872C14.5008 4.88918 17.1688 3.24449 20.2113 2.75075C23.2539 2.25701 26.3106 2.97269 28.8083 4.76433C33.9654 8.46858 35.1329 15.6627 31.4109 20.8022C29.608 23.2917 26.94 24.9364 23.8919 25.4311C21.5754 25.807 19.2531 25.4817 17.174 24.5168C17.0322 24.4492 16.8904 24.3816 16.7533 24.3076C16.6162 24.2336 16.479 24.1596 16.3419 24.0856C15.9848 23.8831 15.6352 23.6567 15.295 23.4175C15.0053 23.2097 14.7313 22.9937 14.4667 22.7648C14.3481 22.6652 14.2342 22.5591 14.1203 22.453C14.0064 22.3469 13.8916 22.2353 13.7832 22.1283C12.1286 20.449 11.0364 18.3104 10.6514 15.9381C10.1599 12.9093 10.8839 9.87005 12.6859 7.375L12.6979 7.37872ZM14.3215 21.3445C14.4794 21.5114 14.6484 21.6765 14.8165 21.8361C15.138 22.135 15.479 22.4137 15.845 22.6714C16.3278 23.0177 16.8256 23.3163 17.3513 23.5764C17.494 23.6495 17.6413 23.7162 17.7822 23.7782C19.6378 24.5926 21.6945 24.859 23.7506 24.5254C26.5493 24.0712 29.0053 22.5572 30.6642 20.2665C34.0823 15.5331 33.0089 8.91824 28.2646 5.51504C25.9665 3.86654 23.1577 3.20689 20.3591 3.66105C17.5604 4.11522 15.1043 5.62925 13.4455 7.91988C11.7866 10.2105 11.1201 13.0082 11.5723 15.7943C11.9152 17.9073 12.8691 19.8249 14.316 21.3454L14.3215 21.3445Z" fill="#52ACBC"/>
<path d="M9.75826 26.3433L6.12923 31.3544C5.52516 32.1885 5.71407 33.3526 6.55091 33.9529L8.17953 35.1212C9.01637 35.7215 10.1857 35.5317 10.7898 34.6976L14.4327 29.6672C15.0415 28.8267 14.8443 27.6469 13.9918 27.0548L12.3501 25.9113C11.5104 25.3285 10.3586 25.5211 9.75915 26.3488L9.75826 26.3433Z" fill="#52ACBC"/>
<path d="M5.75528 31.0863L9.38431 26.0751C9.75139 25.5682 10.2893 25.2375 10.9044 25.1376C11.1427 25.099 11.3873 25.0989 11.6197 25.1291C11.7829 25.1536 11.9433 25.1955 12.1008 25.2549C12.2464 25.3106 12.3882 25.3781 12.5216 25.4641C12.5537 25.4872 12.585 25.5047 12.6172 25.5278L14.2589 26.6713C14.3095 26.7028 14.3554 26.7406 14.3958 26.7793C14.5199 26.8781 14.6292 26.9906 14.7283 27.1104C14.8347 27.2404 14.9254 27.3785 15.0003 27.5249C15.1073 27.7284 15.1781 27.9547 15.2157 28.1864C15.316 28.8043 15.1717 29.4223 14.8055 29.9347L11.1625 34.9651C10.801 35.4711 10.2576 35.8027 9.64244 35.9026C9.02729 36.0024 8.41243 35.8587 7.90389 35.4939L6.27527 34.3256C5.23244 33.5776 4.99608 32.1211 5.74884 31.0816L5.75528 31.0863ZM10.4158 34.4294L14.0588 29.399C14.2818 29.0911 14.3695 28.7201 14.3031 28.3458C14.27 28.1417 14.1934 27.9503 14.0761 27.7881C14.0743 27.7771 14.0679 27.7725 14.0605 27.7624C13.9716 27.6352 13.8568 27.5236 13.7226 27.4322L12.0809 26.2887C11.953 26.2018 11.8168 26.1334 11.6675 26.0896C11.4712 26.0366 11.2645 26.0248 11.0595 26.0581C10.6882 26.1183 10.3623 26.3184 10.1439 26.62L6.51487 31.6311C6.0595 32.2599 6.20185 33.1371 6.83181 33.5842L8.46042 34.7524C8.76297 34.9694 9.13539 35.0562 9.5067 34.996C9.87801 34.9357 10.2039 34.7356 10.4223 34.434L10.4158 34.4294Z" fill="#52ACBC"/>
<path d="M18.5047 13.3935L21.2083 16.5493L25.9866 11.6439" stroke="#52ACBC" stroke-width="3"/>
<path d="M29 35C32.3137 35 35 32.3137 35 29C35 25.6863 32.3137 23 29 23C25.6863 23 23 25.6863 23 29C23 32.3137 25.6863 35 29 35Z" fill="#FF892A"/>
<g clip-path="url(#clip0_4103_27745)">
<path d="M29 26C26.0909 26 25 29 25 29C25 29 26.0909 32 29 32C31.9091 32 33 29 33 29C33 29 31.9091 26 29 26ZM29 27.125C30.0036 27.125 30.8182 27.965 30.8182 29C30.8182 30.035 30.0036 30.875 29 30.875C27.9964 30.875 27.1818 30.035 27.1818 29C27.1818 27.965 27.9964 27.125 29 27.125Z" fill="white"/>
</g>
<defs>
<clipPath id="clip0_4103_27745">
<rect width="8" height="6" fill="white" transform="translate(25 26)"/>
</clipPath>
</defs>
</svg>
