<svg width="37" height="37" viewBox="0 0 37 37" fill="none" xmlns="http://www.w3.org/2000/svg">
<path d="M27.9447 25.8223C27.2344 26.6969 25.8948 26.8619 25.0023 26.1872C24.1108 25.5192 23.9549 24.2243 24.6594 23.3574L30.7298 15.9044C31.446 15.0221 32.7649 14.8604 33.6723 15.5395C34.5648 16.2142 34.7266 17.5014 34.0152 18.3694L27.9447 25.8223Z" fill="#52ACBC"/>
<path fill-rule="evenodd" clip-rule="evenodd" d="M24.6589 23.3572C23.9544 24.2241 24.1103 25.5191 25.0018 26.1871C25.8943 26.8617 27.2339 26.6968 27.9442 25.8222L34.0147 18.3692C34.7261 17.5012 34.5643 16.214 33.6718 15.5394C32.7644 14.8603 31.4455 15.0219 30.7293 15.9043L24.6589 23.3572ZM28.0998 25.9485L34.1697 18.4963C34.1698 18.4962 34.1698 18.4961 34.1699 18.496C34.9541 17.539 34.7747 16.1219 33.7926 15.3795L33.7918 15.3789L33.7918 15.3789C32.7984 14.6354 31.3579 14.812 30.5738 15.7779C30.5738 15.7779 30.5737 15.7779 30.5737 15.778L24.5035 23.2307L24.5033 23.2308C23.7278 24.1852 23.8983 25.6102 24.8811 26.3471C25.8605 27.0872 27.322 26.9062 28.0998 25.9485Z" fill="#52ACBC"/>
<path d="M12.683 14.2913C11.9716 15.1593 10.6331 15.3309 9.74053 14.6562C8.84905 13.9882 8.69893 12.6856 9.39759 11.8264L15.468 4.37345C16.1842 3.49111 17.5031 3.32943 18.4105 4.00854C19.3179 4.68764 19.4696 5.95603 18.7534 6.83838C18.7534 6.83838 12.6957 14.2825 12.683 14.2913Z" fill="#52ACBC"/>
<path fill-rule="evenodd" clip-rule="evenodd" d="M18.7539 6.83823C19.4701 5.95589 19.3183 4.6875 18.4109 4.00839C17.5035 3.32929 16.1847 3.49097 15.4685 4.37331L9.39805 11.8263C8.69939 12.6854 8.84951 13.9881 9.74099 14.6561C10.6335 15.3308 11.972 15.1592 12.6834 14.2912C12.6962 14.2824 18.7539 6.83823 18.7539 6.83823ZM12.836 14.4212L12.8369 14.4201L12.8421 14.414L12.8565 14.3966L12.9087 14.333C12.9539 14.2779 13.0197 14.1974 13.1032 14.0952C13.2701 13.8907 13.5078 13.5991 13.7927 13.2495C14.3624 12.5504 15.1208 11.619 15.8789 10.6879C16.6369 9.75686 17.3945 8.82606 17.9626 8.12803L18.9091 6.96507C18.9091 6.96501 18.9093 6.96473 18.7539 6.83823L18.9091 6.96507L18.9095 6.96454C19.6966 5.99479 19.5305 4.59594 18.531 3.84794C17.5376 3.10445 16.0971 3.28101 15.313 4.24689C15.313 4.24685 15.313 4.24693 15.313 4.24689L9.24266 11.6997C8.47311 12.646 8.63711 14.0794 9.62081 14.8165C10.6 15.5561 12.0574 15.3678 12.836 14.4212Z" fill="#52ACBC"/>
<path d="M21.9473 21.2937C21.799 21.4737 21.6745 21.6703 21.5707 21.8637L14.8875 16.8496C15.0629 16.7062 15.2282 16.5439 15.3765 16.3639L21.4539 8.90983C21.6012 8.7232 21.7336 8.53212 21.8294 8.33325L28.5126 13.3473C28.3383 13.4974 28.173 13.6597 28.0246 13.8397L21.9542 21.2926L21.9473 21.2937Z" fill="#52ACBC"/>
<path fill-rule="evenodd" clip-rule="evenodd" d="M21.6711 21.6881C21.7524 21.5531 21.8443 21.4194 21.9478 21.2938L21.9547 21.2927L28.0252 13.8397C28.1296 13.7129 28.2425 13.5949 28.3611 13.4838C28.4108 13.4372 28.4616 13.3917 28.5131 13.3473L21.8299 8.33329C21.801 8.3934 21.7687 8.4528 21.7336 8.51158C21.6527 8.64727 21.5572 8.77965 21.4544 8.90988L15.3771 16.3639C15.2732 16.4899 15.1611 16.6072 15.043 16.7154C14.9924 16.7619 14.9407 16.8066 14.888 16.8497L21.5712 21.8637C21.6026 21.8053 21.6358 21.7466 21.6711 21.6881ZM15.2224 16.2365L21.2981 8.78448C21.4407 8.60364 21.5628 8.42601 21.6494 8.2463L21.7552 8.02667L28.8327 13.3366L28.6439 13.4992C28.4763 13.6435 28.3196 13.7976 28.1802 13.9667C28.1801 13.9669 28.1799 13.967 28.1798 13.9672L22.0618 21.4786L22.0558 21.4796C21.9377 21.6312 21.8356 21.7949 21.7478 21.9585L21.6375 22.164L14.5632 16.8565L14.7611 16.6946C14.9269 16.559 15.0826 16.406 15.222 16.2369C15.2222 16.2368 15.2223 16.2366 15.2224 16.2365Z" fill="#52ACBC"/>
<path d="M5.66504 27.872L12.5114 20.983C12.7617 20.7324 13.1673 20.702 13.4479 20.9092L17.8268 24.2005C18.1084 24.4143 18.1764 24.7981 17.9817 25.0875C17.9817 25.0875 12.6696 33.1276 12.6707 33.1342C11.2616 35.2693 8.15601 35.8098 6.10735 34.271C4.0587 32.7322 3.85404 29.7036 5.66609 27.8786L5.66504 27.872Z" fill="#52ACBC"/>
<path fill-rule="evenodd" clip-rule="evenodd" d="M5.45195 27.8109C3.6325 29.7279 3.86668 32.8389 5.9865 34.4311C8.12753 36.0393 11.3649 35.4759 12.8374 33.2444L12.8803 33.1795L12.8802 33.1786L12.8972 33.1525C12.936 33.0934 12.9929 33.0068 13.0655 32.8966C13.2106 32.6762 13.4179 32.3616 13.6669 31.9843C14.1647 31.2297 14.8286 30.2241 15.4925 29.2186C16.1565 28.2132 16.8205 27.208 17.3184 26.4542L18.1475 25.1993C18.4033 24.819 18.3111 24.3168 17.9475 24.0408L17.9467 24.0402L13.5665 20.7478C13.2054 20.4812 12.6889 20.521 12.3691 20.8412L12.3687 20.8416L5.45066 27.8028L5.45195 27.8109ZM5.6656 27.8785C3.85355 29.7034 4.05821 32.7321 6.10687 34.2709C8.15552 35.8096 11.2612 35.2692 12.6702 33.134C12.6691 33.1274 17.9812 25.0873 17.9812 25.0873C18.1759 24.798 18.1079 24.4142 17.8263 24.2004L13.4474 20.909C13.1669 20.7019 12.7612 20.7322 12.5109 20.9828L5.66455 27.8719L5.6656 27.8785Z" fill="#52ACBC"/>
<path d="M30 36C33.3137 36 36 33.3137 36 30C36 26.6863 33.3137 24 30 24C26.6863 24 24 26.6863 24 30C24 33.3137 26.6863 36 30 36Z" fill="#FF892A"/>
<path d="M26.8729 29.013L29.1911 31.719L33.2883 27.5128" stroke="white" stroke-width="2"/>
</svg>
