<svg width="42" height="40" viewBox="0 0 42 40" fill="none" xmlns="http://www.w3.org/2000/svg">
<path d="M16.8918 5.23486C18.4908 5.23486 19.9399 5.88334 20.9887 6.93215C22.0375 7.98095 22.686 9.43009 22.686 11.029C22.686 12.628 22.0375 14.0771 20.9887 15.1259C19.9399 16.1747 18.4908 16.8232 16.8918 16.8232C15.2929 16.8232 13.8437 16.1747 12.7949 15.1259C11.7461 14.0771 11.0977 12.628 11.0977 11.029C11.0977 9.43009 11.7461 7.98095 12.7949 6.93215C13.8414 5.88334 15.2905 5.23486 16.8918 5.23486Z" fill="#52ACBC"/>
<path d="M21.9913 20.2981C23.0652 20.5196 24.1137 20.7344 25.1113 20.8994L28.5432 17.6892C29.5986 16.7013 31.0535 16.6335 32.2221 17.1105C32.6355 17.2801 33.0165 17.5197 33.3352 17.8158C33.6678 18.1233 33.931 18.4918 34.0927 18.9032C34.4645 19.8527 34.3075 20.9672 33.229 22.0139L33.1759 22.0637L26.3954 27.6928L26.0559 27.9754L25.6171 27.8872L24.086 27.5798C24.1044 27.8126 24.1137 28.0432 24.1137 28.2738V40H9.38183V28.2738C9.38183 28.2286 9.38183 28.1834 9.38183 28.1381C8.70286 28.5157 8.55044 28.9362 8.36107 29.4652C8.30795 29.6144 8.25253 29.7681 8.15322 30.0145L7.16017 32.4538C6.61976 33.7831 5.32417 34.4387 4.05861 34.4794C3.60827 34.4929 3.16255 34.4319 2.75378 34.2963C2.32192 34.1516 1.9247 33.9232 1.59907 33.6135C0.85774 32.9014 0.525183 31.8231 1.05866 30.4327L1.08637 30.3694L3.20643 25.9385C3.95237 24.3786 4.78146 23.3342 5.78375 22.5791C9.89684 19.4752 17.1277 19.2988 21.989 20.3026L21.9913 20.2981Z" fill="#52ACBC"/>
<path d="M38.2816 5.44049C38.7085 5.92152 38.6775 6.69129 38.2149 7.1316C37.7562 7.57194 37.0124 7.53999 36.5892 7.06297L32.9529 2.95427C32.5222 2.46923 32.5531 1.71143 33.0196 1.26316C33.4822 0.822849 34.2221 0.850786 34.6452 1.33179L38.2816 5.44049Z" fill="#FF892A"/>
<path fill-rule="evenodd" clip-rule="evenodd" d="M36.5888 7.06324C37.0119 7.54025 37.7557 7.5722 38.2144 7.13187C38.677 6.69155 38.708 5.92178 38.2811 5.44076L34.6447 1.33205C34.2217 0.851049 33.4817 0.823113 33.0191 1.26343C32.5526 1.7117 32.5217 2.4695 32.9524 2.95453L36.5888 7.06324ZM38.3666 5.36482L34.7306 1.2565C34.7306 1.25645 34.7306 1.25641 34.7305 1.25636C34.264 0.726145 33.4492 0.696054 32.9402 1.18057L32.9398 1.18094L32.9398 1.18094C32.4291 1.67172 32.3953 2.49941 32.8668 3.03043C32.8669 3.03045 32.8669 3.03047 32.8669 3.03049L36.5031 7.13905L36.5032 7.13915C36.969 7.66428 37.7874 7.70004 38.2934 7.21465C38.8009 6.73148 38.8341 5.89153 38.3666 5.36482Z" fill="#FF892A"/>
<path d="M30.3753 12.9699C30.7984 13.4509 30.7712 14.2207 30.3086 14.6611C29.8499 15.1014 29.1023 15.0654 28.683 14.5924L25.0466 10.4837C24.6159 9.99868 24.6468 9.24088 25.1133 8.79261C25.5798 8.34434 26.3082 8.3762 26.739 8.86124C26.739 8.86124 30.3715 12.9619 30.3753 12.9699Z" fill="#FF892A"/>
<path fill-rule="evenodd" clip-rule="evenodd" d="M26.7375 8.86102C26.3068 8.37599 25.5783 8.34412 25.1118 8.7924C24.6454 9.24067 24.6144 9.99847 25.0452 10.4835L28.6815 14.5922C29.1008 15.0652 29.8484 15.1012 30.3072 14.6608C30.7697 14.2205 30.7969 13.4507 30.3738 12.9697C30.37 12.9617 26.7375 8.86102 26.7375 8.86102ZM30.4612 12.8958L30.4607 12.8952L30.4577 12.8917L30.4492 12.882L30.4183 12.8467C30.3914 12.8161 30.3521 12.7716 30.3022 12.7152C30.2025 12.6022 30.0603 12.4414 29.8897 12.2486C29.5486 11.863 29.0942 11.3496 28.6399 10.8365C28.1856 10.3234 27.7314 9.8106 27.3908 9.42604L26.8233 8.78536C26.8233 8.78533 26.8231 8.78517 26.7375 8.86102L26.8233 8.78536L26.823 8.78506C26.3496 8.25198 25.5464 8.21617 25.0326 8.70991C24.5219 9.20069 24.4881 10.0284 24.9596 10.5594C24.9596 10.5594 24.9596 10.5594 24.9596 10.5594L28.5959 14.668C29.0577 15.189 29.8802 15.2293 30.3864 14.7434C30.8935 14.2602 30.9224 13.4219 30.4612 12.8958Z" fill="#FF892A"/>
<path d="M35.1759 8.39936C35.2635 8.49957 35.3627 8.58787 35.462 8.6642L32.0196 11.9647C31.955 11.8527 31.8789 11.7445 31.7912 11.6443L28.1549 7.53163C28.0634 7.4314 27.968 7.33913 27.8649 7.26676L31.3073 3.96627C31.3758 4.07834 31.4519 4.18646 31.5395 4.28667L35.1759 8.39537L35.1759 8.39936Z" fill="#FF892A"/>
<path fill-rule="evenodd" clip-rule="evenodd" d="M35.3732 8.5917C35.3046 8.5334 35.2378 8.46927 35.1767 8.39935L35.1767 8.39536L31.5404 4.28665C31.4786 4.21607 31.4226 4.14157 31.371 4.06452C31.3493 4.03218 31.3284 3.99939 31.3082 3.96625L27.8657 7.26675C27.8969 7.28862 27.9273 7.31231 27.9572 7.33749C28.0261 7.39562 28.0919 7.46168 28.1557 7.53161L31.792 11.6443C31.8534 11.7144 31.9091 11.7884 31.9591 11.865C31.9806 11.8978 32.001 11.9311 32.0204 11.9647L35.4629 8.66419C35.4329 8.64112 35.4029 8.61696 35.3732 8.5917ZM31.7059 11.7196L28.0706 7.60808C27.982 7.51101 27.8932 7.42579 27.8 7.3604L27.6861 7.28048L31.3317 3.78523L31.4058 3.90664C31.4716 4.01441 31.5439 4.1169 31.6262 4.21108C31.6263 4.21116 31.6264 4.21125 31.6265 4.21133L35.2913 8.35227L35.2913 8.35574C35.3658 8.43626 35.4486 8.50892 35.5326 8.57349L35.6381 8.65463L31.9942 12.1483L31.9213 12.0218C31.8603 11.9159 31.7885 11.814 31.7061 11.7199C31.7061 11.7198 31.706 11.7197 31.7059 11.7196Z" fill="#FF892A"/>
<path d="M37.3742 18.179L34.1273 13.6855C34.0093 13.5213 34.0297 13.29 34.1724 13.1512L36.4313 10.9892C36.5778 10.8504 36.8002 10.8476 36.9452 10.984C36.9452 10.984 40.9824 14.7199 40.9863 14.7199C42.0585 15.7111 42.0756 17.5103 41.0194 18.5219C39.9632 19.5335 38.2383 19.3685 37.378 18.1791L37.3742 18.179Z" fill="#FF892A"/>
<path fill-rule="evenodd" clip-rule="evenodd" d="M37.3197 18.2934C38.2312 19.4956 40.0051 19.6515 41.098 18.6048C42.2019 17.5476 42.1841 15.672 41.0634 14.6361L41.0308 14.606L41.0303 14.606L41.0172 14.594C40.9875 14.5667 40.944 14.5266 40.8886 14.4755C40.7779 14.3734 40.6199 14.2275 40.4304 14.0524C40.0514 13.7022 39.5464 13.2352 39.0415 12.7682C38.5366 12.3012 38.0319 11.8343 37.6533 11.484L37.0232 10.901C36.8327 10.7217 36.5413 10.7272 36.3521 10.9064L36.3517 10.9068L34.0921 13.0694C33.9085 13.2481 33.8831 13.5427 34.0339 13.7525L34.0341 13.7527L37.315 18.2934L37.3197 18.2934ZM37.3776 18.1793C38.2378 19.3688 39.9627 19.5337 41.0189 18.5221C42.0752 17.5106 42.058 15.7113 40.9858 14.7201C40.9819 14.7201 36.9448 10.9843 36.9448 10.9843C36.7998 10.8478 36.5773 10.8506 36.4308 10.9895L34.1719 13.1514C34.0292 13.2903 34.0088 13.5215 34.1268 13.6857L37.3737 18.1793L37.3776 18.1793Z" fill="#FF892A"/>
</svg>
