<svg width="34" height="24" viewBox="0 0 34 24" fill="none" xmlns="http://www.w3.org/2000/svg">
<path fill-rule="evenodd" clip-rule="evenodd" d="M2 0C0.895431 0 0 0.895429 0 2V19.4286C0 20.5331 0.89543 21.4286 2 21.4286H28C29.1046 21.4286 30 20.5331 30 19.4286V2C30 0.895431 29.1046 0 28 0H2ZM26.25 3.89648H15.9375V17.5328H26.25V3.89648ZM3.75 3.89648H14.0625V5.84454H3.75V3.89648ZM14.0625 7.79192H3.75V9.73997H14.0625V7.79192ZM3.75 11.6884H14.0625V13.6365H3.75V11.6884ZM14.0625 15.5849H3.75V17.5329H14.0625V15.5849Z" fill="#52ACBC"/>
<path d="M28 24C31.3137 24 34 21.3137 34 18C34 14.6863 31.3137 12 28 12C24.6863 12 22 14.6863 22 18C22 21.3137 24.6863 24 28 24Z" fill="#FF892A"/>
<path d="M24.8729 17.013L27.1911 19.719L31.2883 15.5128" stroke="white" stroke-width="2"/>
</svg>
