<svg width="33" height="33" viewBox="0 0 33 33" fill="none" xmlns="http://www.w3.org/2000/svg">
<path fill-rule="evenodd" clip-rule="evenodd" d="M15.0342 16.9722C15.0342 15.8676 15.9296 14.9722 17.0342 14.9722H26.4216C27.5261 14.9722 28.4216 15.8676 28.4216 16.9722V23.4111C28.4216 24.5157 27.5261 25.4111 26.4216 25.4111H25.8596C25.4116 26.3706 24.6238 27.107 23.6708 27.4287V25.4111H17.0342C15.9296 25.4111 15.0342 24.5157 15.0342 23.4111V16.9722ZM25.8292 17.5673H17.6241V18.6053H25.8292V17.5673ZM17.6241 19.6434H25.8292V20.6815H17.6241V19.6434ZM25.8292 21.7191H17.6241V22.7572H25.8292V21.7191Z" fill="#FF892A"/>
<path fill-rule="evenodd" clip-rule="evenodd" d="M5.06543 9.49804C5.06543 8.39347 5.96086 7.49805 7.06543 7.49805H18.7315C19.8361 7.49805 20.7315 8.39348 20.7315 9.49805V13.7267H18.9062V9.67813H13.6473V13.7267H13.6104V20.0884H7.06543C5.96086 20.0884 5.06543 19.193 5.06543 18.0884V9.49804ZM12.4086 9.78772H7.02338V10.9323H12.4086V9.78772ZM7.02341 12.0764H12.4086V13.221H7.02341V12.0764ZM12.4086 14.3658H7.02341V15.5104H12.4086V14.3658ZM7.02341 16.6552H12.4086V17.7998H7.02341V16.6552Z" fill="#FF892A"/>
<g clip-path="url(#clip0_4103_27905)">
<path fill-rule="evenodd" clip-rule="evenodd" d="M32.7585 16.4993C32.7585 25.4787 25.4792 32.7568 16.501 32.7568C7.52272 32.7568 0.242188 25.4787 0.242188 16.4993C0.242188 7.51981 7.52151 0.241699 16.4997 0.241699C25.478 0.241699 32.7573 7.52102 32.7573 16.4993H32.7585ZM25.4985 27.1401C23.0705 29.1958 19.9302 30.4352 16.4997 30.4352C8.80325 30.4352 2.56383 24.1958 2.56383 16.4993C2.56383 13.0688 3.80325 9.92852 5.85887 7.50047L25.4985 27.1401ZM27.1406 25.4981L7.50216 5.85839C9.93022 3.80276 13.0705 2.56334 16.501 2.56334C24.1974 2.56334 30.4369 8.80276 30.4369 16.4993C30.4369 19.9297 29.1974 23.07 27.1418 25.4981H27.1406Z" fill="#52ACBC"/>
<path d="M16.4994 33C7.40145 33 0 25.5973 0 16.4994C0 7.40145 7.40145 0 16.4994 0C25.5973 0 32.9988 7.40145 32.9988 16.4994C32.9988 25.5973 25.5973 32.9988 16.4994 32.9988V33ZM16.4994 0.483676C7.66868 0.483676 0.483676 7.66868 0.483676 16.4994C0.483676 25.3301 7.66868 32.5151 16.4994 32.5151C25.3301 32.5151 32.5151 25.3301 32.5151 16.4994C32.5151 7.66868 25.3313 0.483676 16.4994 0.483676ZM16.4994 30.6771C8.68198 30.6771 2.32164 24.3168 2.32164 16.4994C2.32164 13.1487 3.51149 9.89843 5.67352 7.34462L5.84281 7.14389L6.02902 7.33011L25.8549 27.156L25.6542 27.3253C23.1016 29.4873 19.8501 30.6771 16.4994 30.6771ZM5.87545 7.85973C3.8948 10.2938 2.80653 13.3519 2.80653 16.4994C2.80653 24.0496 8.94921 30.1935 16.5006 30.1935C19.6493 30.1935 22.7062 29.1052 25.1403 27.1245L5.87545 7.85973ZM27.1548 25.8549L26.9686 25.6687L7.14389 5.84401L7.34462 5.67473C9.89843 3.5127 13.1487 2.32285 16.4994 2.32285C24.3168 2.32285 30.6771 8.68319 30.6771 16.5006C30.6771 19.8513 29.4873 23.1028 27.3253 25.6554L27.156 25.8561L27.1548 25.8549ZM7.85973 5.87545L27.1233 25.1391C29.104 22.705 30.1923 19.6469 30.1923 16.4994C30.1923 8.94921 24.0496 2.80532 16.4982 2.80532C13.3495 2.80532 10.2926 3.89359 7.85852 5.87424L7.85973 5.87545Z" fill="#52ACBC"/>
</g>
<defs>
<clipPath id="clip0_4103_27905">
<rect width="33" height="33" fill="white"/>
</clipPath>
</defs>
</svg>
