<svg width="32" height="36" viewBox="0 0 32 36" fill="none" xmlns="http://www.w3.org/2000/svg">
<path fill-rule="evenodd" clip-rule="evenodd" d="M21.6851 11.325L21.6853 11.3253L24.4833 8.4384V8.43785L21.6851 11.325ZM21.4269 11.0434L21.4268 11.0434H21.4233L21.4234 11.0434H21.4269ZM20.3557 3.87244C20.4261 3.9738 20.5159 4.06766 20.6136 4.15777L24.4833 7.61671V7.61634L20.614 4.15783C20.5163 4.06762 20.4264 3.97366 20.356 3.87218L20.3557 3.87244ZM18.6747 3.36279H2.86035C1.75578 3.36279 0.860352 4.25822 0.860352 5.36279V33.175C0.860352 34.2796 1.75578 35.175 2.86035 35.175H22.4833C23.5878 35.175 24.4833 34.2796 24.4833 33.175V15.6864L23.368 14.4677L22.8021 13.8494C22.5472 13.5731 22.3902 13.2467 22.3259 12.9085L22.0399 13.2036C22.0517 13.8843 21.8059 14.5707 21.2931 15.1006C20.271 16.1604 18.5597 16.2118 17.4701 15.2354L17.469 15.2343L15.8178 13.757H5.42805C4.99316 13.757 4.64062 13.4044 4.64062 12.9696C4.64062 12.5347 4.99316 12.1821 5.42805 12.1821H14.0576L13.4666 11.6533L13.4644 11.6514C12.7845 11.0455 12.4941 10.1778 12.5927 9.34683H5.42805C4.99316 9.34683 4.64062 8.99429 4.64062 8.5594C4.64062 8.12452 4.99316 7.77197 5.42805 7.77197H13.3575C13.8575 7.27393 14.5101 7.00646 15.1736 6.97512L18.6747 3.36279ZM24.4833 11.7465L23.9592 12.2882C23.8224 12.431 23.8185 12.649 23.9514 12.7918C23.9514 12.7918 24.1626 13.0226 24.4833 13.3729V13.3726L23.9516 12.7918C23.8187 12.649 23.8226 12.431 23.9594 12.2881L24.4833 11.7467V11.7465ZM14.1813 9.34683C14.0642 9.74358 14.1733 10.1917 14.5045 10.4862L16.4 12.1821H16.4005L14.5054 10.4865C14.1741 10.1919 14.0651 9.74366 14.1824 9.34683H14.1813ZM18.1601 13.757L18.512 14.0718C18.6285 14.1763 18.7626 14.2533 18.905 14.303C18.763 14.2533 18.6292 14.1764 18.5129 14.0721L18.1607 13.757H18.1601ZM4.64062 21.7884C4.64062 21.3535 4.99316 21.001 5.42805 21.001H19.9168C20.3517 21.001 20.7042 21.3535 20.7042 21.7884C20.7042 22.2233 20.3517 22.5758 19.9168 22.5758H5.42805C4.99316 22.5758 4.64062 22.2233 4.64062 21.7884ZM7.63215 16.5918C7.19726 16.5918 6.84472 16.9443 6.84472 17.3792C6.84472 17.8141 7.19726 18.1667 7.63215 18.1667H17.7113C18.1461 18.1667 18.4987 17.8141 18.4987 17.3792C18.4987 16.9443 18.1461 16.5918 17.7113 16.5918H7.63215Z" fill="#52ACBC"/>
<path d="M18.5751 14.0338C19.039 14.4501 19.7851 14.424 20.2142 13.9781C20.6433 13.5358 20.6163 12.8149 20.1562 12.4024L16.1937 8.85706C15.726 8.43712 14.9915 8.46313 14.5546 8.9128C14.1255 9.35875 14.1487 10.076 14.6126 10.4885L18.5751 14.0338Z" fill="#52ACBC"/>
<path fill-rule="evenodd" clip-rule="evenodd" d="M20.1558 12.4029C20.6158 12.8154 20.6429 13.5364 20.2138 13.9786C19.7846 14.4245 19.0385 14.4506 18.5746 14.0343L14.6121 10.489C14.1482 10.0765 14.125 9.35926 14.5541 8.91331C14.991 8.46364 15.7255 8.43762 16.1933 8.85756L20.1558 12.4029ZM18.5006 14.1168L14.5385 10.5719C14.5384 10.5718 14.5384 10.5718 14.5383 10.5717C14.027 10.1169 14.0021 9.32716 14.4743 8.83644L14.4746 8.83606L14.4746 8.83606C14.9529 8.34376 15.7552 8.31533 16.2673 8.77502C16.2673 8.77503 16.2673 8.77505 16.2673 8.77507L20.2297 12.3203L20.2298 12.3204C20.7362 12.7745 20.7666 13.5678 20.2936 14.0555C19.8227 14.5448 19.0086 14.5726 18.5006 14.1168Z" fill="#52ACBC"/>
<path d="M25.9115 6.41127C26.3754 6.82378 27.1216 6.80148 27.5507 6.35552C27.9798 5.91329 27.9488 5.18861 27.4927 4.77982L23.5302 1.2345C23.0624 0.814559 22.3279 0.840573 21.8911 1.29024C21.4542 1.73991 21.4813 2.446 21.949 2.86594C21.949 2.86594 25.9038 6.40755 25.9115 6.41127Z" fill="#52ACBC"/>
<path fill-rule="evenodd" clip-rule="evenodd" d="M21.9486 2.86596C21.4808 2.44602 21.4538 1.73993 21.8906 1.29026C22.3274 0.840592 23.0619 0.814578 23.5297 1.23452L27.4922 4.77984C27.9484 5.18863 27.9793 5.91331 27.5502 6.35554C27.1211 6.8015 26.375 6.82379 25.9111 6.41129C25.9033 6.40757 21.9486 2.86596 21.9486 2.86596ZM25.839 6.49553L25.8384 6.49503L25.835 6.49212L25.8256 6.48388L25.7916 6.45369C25.7622 6.42748 25.7192 6.38919 25.6648 6.34058C25.5559 6.24335 25.4007 6.10467 25.2148 5.9384C24.8429 5.60583 24.3478 5.16277 23.853 4.71983C23.3582 4.27689 22.8636 3.83407 22.4927 3.50199L21.8748 2.94871C21.8748 2.94868 21.8746 2.94854 21.9486 2.86596L21.8748 2.94871L21.8745 2.94845C21.3604 2.48691 21.3299 1.7083 21.8111 1.21302C22.2893 0.72071 23.0916 0.692282 23.6037 1.15197C23.6037 1.15195 23.6037 1.15199 23.6037 1.15197L27.5661 4.69723C28.0686 5.14749 28.1033 5.94476 27.6298 6.43274C27.1589 6.92167 26.3464 6.9452 25.839 6.49553Z" fill="#52ACBC"/>
<path d="M21.4573 11.0404C21.5539 11.1258 21.639 11.2225 21.7124 11.3191L24.9288 8.00045C24.8206 7.93727 24.7162 7.86295 24.6195 7.77747L20.6532 4.23214C20.5565 4.14295 20.4676 4.05005 20.398 3.94971L17.1816 7.26834C17.2899 7.33523 17.3943 7.40956 17.4909 7.49503L21.4534 11.0404H21.4573Z" fill="#52ACBC"/>
<path fill-rule="evenodd" clip-rule="evenodd" d="M21.6424 11.2319C21.5863 11.1652 21.5245 11.1002 21.457 11.0405H21.4532L17.4907 7.49519C17.4226 7.43499 17.3507 7.38032 17.2763 7.32988C17.2451 7.3087 17.2134 7.28828 17.1814 7.2685L20.3978 3.94987C20.4188 3.98019 20.4416 4.00984 20.4659 4.03892C20.5218 4.10603 20.5855 4.17007 20.6529 4.2323L24.6193 7.77763C24.6869 7.83745 24.7584 7.89181 24.8322 7.9407C24.8639 7.96168 24.8961 7.98164 24.9286 8.00061L21.7122 11.3192C21.69 11.29 21.6667 11.2608 21.6424 11.2319ZM24.6927 7.69459L20.7275 4.15024C20.6339 4.06381 20.5518 3.97736 20.4889 3.88669L20.412 3.77588L17.0059 7.29034L17.1231 7.3628C17.2272 7.42713 17.3261 7.49771 17.417 7.57801C17.4171 7.57809 17.4171 7.57816 17.4172 7.57823L21.4108 11.1514H21.4142C21.4918 11.224 21.5618 11.3046 21.6239 11.3863L21.702 11.489L25.1066 7.97617L24.9844 7.90486C24.8821 7.84516 24.7838 7.77509 24.693 7.69479C24.6929 7.69473 24.6928 7.69466 24.6927 7.69459Z" fill="#52ACBC"/>
<path d="M30.9238 13.2217L26.5863 10.0517C26.4278 9.9365 26.2036 9.95509 26.0683 10.0926L23.9614 12.2703C23.8261 12.4115 23.8222 12.6271 23.9536 12.7683C23.9536 12.7683 27.5527 16.7001 27.5527 16.7038C28.5076 17.7481 30.2511 17.7741 31.2369 16.7559C32.2227 15.7376 32.0719 14.0653 30.9238 13.2254V13.2217Z" fill="#52ACBC"/>
<path fill-rule="evenodd" clip-rule="evenodd" d="M31.0341 13.1704C32.1943 14.06 32.3361 15.7798 31.3161 16.8335C30.2858 17.8977 28.4684 17.8705 27.4704 16.7792L27.4414 16.7474V16.7469L27.4298 16.7341C27.4035 16.7052 27.3649 16.6628 27.3157 16.6089C27.2173 16.5011 27.0768 16.3472 26.9081 16.1626C26.5707 15.7935 26.1208 15.3017 25.6709 14.81C25.221 14.3183 24.7711 13.8267 24.4337 13.4581L23.872 12.8444C23.6993 12.6588 23.7062 12.3765 23.8808 12.1941L23.8812 12.1937L25.9887 10.0153C26.1629 9.83837 26.4485 9.81536 26.651 9.96254L26.6512 9.96271L31.0341 13.1659V13.1704ZM30.9233 13.2259C32.0714 14.0658 32.2222 15.7381 31.2364 16.7564C30.2506 17.7746 28.5071 17.7486 27.5523 16.7043C27.5523 16.7006 23.9532 12.7688 23.9532 12.7688C23.8217 12.6276 23.8256 12.412 23.9609 12.2708L26.0678 10.0931C26.2031 9.95559 26.4273 9.93701 26.5858 10.0522L30.9233 13.2222V13.2259Z" fill="#52ACBC"/>
</svg>
