<svg width="42" height="43" viewBox="0 0 42 43" fill="none" xmlns="http://www.w3.org/2000/svg">
<path d="M15.9744 7.72998C17.5614 7.72998 18.9997 8.37361 20.0407 9.41456C21.0816 10.4555 21.7252 11.8938 21.7252 13.4808C21.7252 15.0678 21.0816 16.5061 20.0407 17.547C18.9997 18.588 17.5614 19.2316 15.9744 19.2316C14.3874 19.2316 12.9492 18.588 11.9082 17.547C10.8673 16.5061 10.2236 15.0678 10.2236 13.4808C10.2236 11.8938 10.8673 10.4555 11.9082 9.41456C12.9468 8.37361 14.3851 7.72998 15.9744 7.72998Z" fill="#FF892A"/>
<path d="M21.0358 22.6803C22.1016 22.9001 23.1422 23.1133 24.1324 23.2771L27.5386 20.091C28.5861 19.1104 30.0301 19.0431 31.1899 19.5166C31.6002 19.6848 31.9784 19.9227 32.2947 20.2166C32.6248 20.5218 32.8861 20.8875 33.0466 21.2959C33.4156 22.2382 33.2597 23.3444 32.1893 24.3833L32.1366 24.4326L25.4069 30.0196L25.0699 30.3001L24.6344 30.2126L23.1147 29.9074C23.1331 30.1385 23.1422 30.3674 23.1422 30.5963V42.2347H8.52069V30.5963C8.52069 30.5514 8.52069 30.5065 8.52069 30.4616C7.8468 30.8363 7.69552 31.2537 7.50756 31.7787C7.45484 31.9268 7.39983 32.0794 7.30127 32.324L6.31565 34.745C5.77929 36.0643 4.4934 36.715 3.23731 36.7554C2.79035 36.7689 2.34796 36.7083 1.94225 36.5736C1.51363 36.43 1.11938 36.2034 0.796186 35.896C0.0604097 35.1892 -0.269658 34.119 0.259826 32.7391L0.287331 32.6762L2.39151 28.2785C3.13187 26.7303 3.95475 25.6936 4.94954 24.9442C9.03184 21.8635 16.2085 21.6885 21.0335 22.6847L21.0358 22.6803Z" fill="#FF892A"/>
<circle cx="33.7104" cy="8.28947" r="8.28947" fill="#52ACBC"/>
<path d="M35.3683 12.1577H33.4825V7.68251C33.4825 7.5597 33.4825 7.408 33.4825 7.2274C33.4908 7.0468 33.4992 6.85898 33.5075 6.66393C33.5158 6.46889 33.5241 6.29551 33.5325 6.14381C33.4908 6.18715 33.3992 6.26662 33.2577 6.3822C33.1245 6.49056 32.9996 6.58808 32.883 6.67477L31.859 7.38994L30.9473 6.40387L33.8197 4.4209H35.3683V12.1577Z" fill="white"/>
</svg>
