<svg width="54" height="52" viewBox="0 0 54 52" fill="none" xmlns="http://www.w3.org/2000/svg">
<g opacity="0.95" filter="url(#filter0_d_313_21613)">
<path d="M25.9023 39.2409C26.488 39.2292 27.0502 39.0387 27.4892 38.7032C27.9283 38.3676 28.216 37.9086 28.3014 37.4072H23.4102C23.498 37.9222 23.7992 38.392 24.2576 38.7293C24.716 39.0666 25.3005 39.2484 25.9023 39.2409Z" fill="white"/>
<path d="M39.7108 34.2952L39.3947 34.0539C38.4977 33.3627 37.7127 32.5701 37.0607 31.6975C36.3486 30.4932 35.9218 29.178 35.8053 27.8291V23.8562C35.8015 23.3736 35.7518 22.8922 35.6565 22.4166C34.0814 22.1366 32.6665 21.3945 31.6515 20.3158C30.6364 19.2371 30.0835 17.8882 30.0864 16.4975V15.9908C29.1156 15.5776 28.0724 15.3059 26.9992 15.1866V14.1733C26.9992 13.8885 26.8684 13.6154 26.6356 13.4141C26.4028 13.2127 26.087 13.0996 25.7578 13.0996C25.4285 13.0996 25.1128 13.2127 24.88 13.4141C24.6472 13.6154 24.5164 13.8885 24.5164 14.1733V15.2268C22.1133 15.52 19.9139 16.5552 18.3244 18.1413C16.7349 19.7274 15.8625 21.7573 15.8684 23.8562V27.8291C15.7519 29.178 15.3251 30.4932 14.613 31.6975C13.9722 32.568 13.1997 33.3604 12.3162 34.0539L12 34.2952V36.5631H39.7108V34.2952Z" fill="white"/>
<path d="M37.0616 20.5184C39.6294 20.5184 41.7111 18.7181 41.7111 16.4972C41.7111 14.2764 39.6294 12.4761 37.0616 12.4761C34.4937 12.4761 32.4121 14.2764 32.4121 16.4972C32.4121 18.7181 34.4937 20.5184 37.0616 20.5184Z" fill="white"/>
</g>
<defs>
<filter id="filter0_d_313_21613" x="0" y="0.476074" width="53.7109" height="50.7651" filterUnits="userSpaceOnUse" color-interpolation-filters="sRGB">
<feFlood flood-opacity="0" result="BackgroundImageFix"/>
<feColorMatrix in="SourceAlpha" type="matrix" values="0 0 0 0 0 0 0 0 0 0 0 0 0 0 0 0 0 0 127 0" result="hardAlpha"/>
<feOffset/>
<feGaussianBlur stdDeviation="6"/>
<feComposite in2="hardAlpha" operator="out"/>
<feColorMatrix type="matrix" values="0 0 0 0 0 0 0 0 0 0 0 0 0 0 0 0 0 0 0.15 0"/>
<feBlend mode="normal" in2="BackgroundImageFix" result="effect1_dropShadow_313_21613"/>
<feBlend mode="normal" in="SourceGraphic" in2="effect1_dropShadow_313_21613" result="shape"/>
</filter>
</defs>
</svg>
