<svg width="56" height="57" viewBox="0 0 56 57" fill="none" xmlns="http://www.w3.org/2000/svg">
<g clip-path="url(#clip0_899_9139)">
<path d="M23.1713 51.5576H0V56.661H23.1713V51.5576Z" fill="#4A9BAA"/>
<path d="M56.0001 56.6614L54.8488 51.1718C52.9262 42.0947 41.5166 38.6202 37.7658 36.8825C34.015 35.1437 34.5655 29.9314 34.5655 29.9314C36.6166 26.7331 38.0123 24.0258 38.9603 21.8136C40.1424 19.8046 40.8501 17.4907 40.9415 15.0134C40.9723 14.6622 40.9682 14.4825 40.9682 14.4825C40.9672 6.4848 34.4824 0 26.4837 0C18.485 0 12.0012 6.4848 12.0012 14.4825C12.0012 15.2723 12.0803 16.0405 12.2025 16.7944L12.1871 16.7964C12.2025 16.8837 12.2272 16.9731 12.2426 17.0624C12.2888 17.3192 12.3443 17.5718 12.4028 17.8255C12.4172 17.883 12.4326 17.9395 12.447 17.9981C12.5527 18.4191 12.6739 18.8331 12.8157 19.2387C14.4733 24.2436 18.1512 28.967 18.1512 28.967H22.5932C25.8757 29.1601 26.4837 33.4069 26.4837 33.4069V56.6625H55.9991L56.0001 56.6614Z" fill="#4F4F4F"/>
<path d="M23.1713 42.4834H0V47.5858H23.1713V42.4834Z" fill="#DFDACB"/>
<path d="M23.1713 33.4072H0V38.5106H23.1713V33.4072Z" fill="#DE7728"/>
</g>
<defs>
<clipPath id="clip0_899_9139">
<rect width="56" height="56.6614" fill="white"/>
</clipPath>
</defs>
</svg>
