<svg width="14" height="10" viewBox="0 0 14 10" fill="none" xmlns="http://www.w3.org/2000/svg">
<path opacity="0.9" fill-rule="evenodd" clip-rule="evenodd" d="M2 0C0.895431 0 0 0.89543 0 2V8C0 9.10457 0.89543 10 2 10H12C13.1046 10 14 9.10457 14 8V2C14 0.895431 13.1046 0 12 0H2ZM12.25 1.81818H7.4375V8.18182H12.25V1.81818ZM1.75 1.81818H6.5625V2.72727H1.75V1.81818ZM6.5625 3.63636H1.75V4.54545H6.5625V3.63636ZM1.75 5.45455H6.5625V6.36364H1.75V5.45455ZM6.5625 7.27273H1.75V8.18182H6.5625V7.27273Z" fill="white"/>
</svg>
