<svg width="17" height="17" viewBox="0 0 17 17" fill="none"
  xmlns="http://www.w3.org/2000/svg">
  <path d="M11.7696 2.41078C11.6911 2.33211 11.5979 2.26969 11.4953 2.22711C11.3926 2.18452 11.2826 2.1626 11.1715 2.1626C11.0604 2.1626 10.9504 2.18452 10.8477 2.22711C10.7451 2.26969 10.6519 2.33211 10.5734 2.41078L4.9574 8.02679C4.89475 8.08931 4.84505 8.16357 4.81114 8.24533C4.77722 8.32708 4.75977 8.41472 4.75977 8.50323C4.75977 8.59174 4.77722 8.67938 4.81114 8.76114C4.84505 8.8429 4.89475 8.91716 4.9574 8.97968L10.5734 14.5957C10.9046 14.9268 11.4385 14.9268 11.7696 14.5957C12.1007 14.2645 12.1007 13.7306 11.7696 13.3995L6.87671 8.49985L11.7764 3.60021C12.1007 3.27582 12.1007 2.73517 11.7696 2.41078Z" fill="#1E232C" stroke="#1E232C" stroke-width="0.2"/>
</svg>
