<svg width="14" height="14" viewBox="0 0 14 14" fill="none" xmlns="http://www.w3.org/2000/svg">
<path d="M7 14C10.8598 14 14 10.8598 14 7C14 3.1402 10.8598 0 7 0C3.1402 0 0 3.1402 0 7C0 10.8598 3.1402 14 7 14ZM11.5652 7C11.5652 9.51726 9.51726 11.5652 7 11.5652C6.18264 11.5652 5.4155 11.3483 4.75117 10.9705L10.9705 4.75117C11.3483 5.4155 11.5652 6.18264 11.5652 7ZM7 2.43478C7.81736 2.43478 8.5845 2.65172 9.24883 3.02954L3.02954 9.24883C2.65172 8.5845 2.43478 7.81736 2.43478 7C2.43478 4.48274 4.48274 2.43478 7 2.43478Z" fill="white"/>
</svg>
