<svg width="70" height="75" viewBox="0 0 70 75" fill="none" xmlns="http://www.w3.org/2000/svg">
<g filter="url(#filter0_d_3869_26385)">
<path d="M34.2325 54.3309C35.5018 54.3028 36.72 53.8441 37.6714 53.036C38.6229 52.2279 39.2463 51.1224 39.4314 49.915H28.832C29.0224 51.1552 29.675 52.2866 30.6684 53.0989C31.6618 53.9112 32.9284 54.349 34.2325 54.3309Z" fill="white"/>
<path d="M48.265 44.7037L47.9425 44.4313C47.0276 43.6507 46.2268 42.7556 45.5618 41.7701C44.8355 40.41 44.4001 38.9247 44.2813 37.4013V32.9145C44.2775 32.3695 44.2267 31.8258 44.1296 31.2888C42.5229 30.9725 41.0798 30.1344 40.0444 28.9162C39.0091 27.698 38.4452 26.1746 38.4481 24.604V24.0318C37.4578 23.5651 36.3939 23.2582 35.2991 23.1235V21.9791C35.2991 21.6575 35.1657 21.3491 34.9283 21.1217C34.6908 20.8943 34.3687 20.7666 34.0329 20.7666C33.6971 20.7666 33.375 20.8943 33.1375 21.1217C32.9001 21.3491 32.7667 21.6575 32.7667 21.9791V23.1689C30.3155 23.5001 28.0722 24.6692 26.4509 26.4604C24.8296 28.2517 23.9398 30.5441 23.9457 32.9145V37.4013C23.8269 38.9247 23.3916 40.41 22.6653 41.7701C22.0116 42.7531 21.2237 43.6481 20.3225 44.4313L20 44.7037V47.265H48.265V44.7037Z" fill="white"/>
<path d="M46 28C48.2091 28 50 26.2091 50 24C50 21.7909 48.2091 20 46 20C43.7909 20 42 21.7909 42 24C42 26.2091 43.7909 28 46 28Z" fill="#FF892A"/>
</g>
<defs>
<filter id="filter0_d_3869_26385" x="0" y="0" width="70" height="74.3315" filterUnits="userSpaceOnUse" color-interpolation-filters="sRGB">
<feFlood flood-opacity="0" result="BackgroundImageFix"/>
<feColorMatrix in="SourceAlpha" type="matrix" values="0 0 0 0 0 0 0 0 0 0 0 0 0 0 0 0 0 0 127 0" result="hardAlpha"/>
<feOffset/>
<feGaussianBlur stdDeviation="10"/>
<feComposite in2="hardAlpha" operator="out"/>
<feColorMatrix type="matrix" values="0 0 0 0 0.0409099 0 0 0 0 0.223218 0 0 0 0 0.254997 0 0 0 0.2 0"/>
<feBlend mode="normal" in2="BackgroundImageFix" result="effect1_dropShadow_3869_26385"/>
<feBlend mode="normal" in="SourceGraphic" in2="effect1_dropShadow_3869_26385" result="shape"/>
</filter>
</defs>
</svg>