<svg width="48" height="48" viewBox="0 0 48 48" fill="none" xmlns="http://www.w3.org/2000/svg">
<g clip-path="url(#clip0_1502_131)">
<g filter="url(#filter0_d_1502_131)">
<mask id="path-1-outside-1_1502_131" maskUnits="userSpaceOnUse" x="6" y="6" width="36" height="36" fill="black">
<rect fill="white" x="6" y="6" width="36" height="36"/>
<path fill-rule="evenodd" clip-rule="evenodd" d="M30.6391 14.9709C30.7678 15.1874 30.7517 15.4457 30.6069 15.6552C30.462 15.8578 30.2045 15.9835 29.9228 15.9835H13.0236C10.8026 15.9835 9 14.4192 9 12.4917C9 10.5643 10.8026 9 13.0236 9H29.9228C30.2045 9 30.462 9.1257 30.6069 9.32822C30.7517 9.53773 30.7678 9.79612 30.6391 10.0126L30.116 10.9274C29.5527 11.9051 29.5527 13.0783 30.116 14.056L30.6391 14.9709ZM12.0221 37.9973C10.3524 37.9973 9 36.6449 9 34.9752V16.7596C9.7933 17.568 10.8435 18.1271 12.0221 18.2933V37.9973ZM34.9613 30.3313L37.4085 32.791C37.7981 33.1805 38.01 33.6929 38.01 34.2395C38.01 34.7861 37.7981 35.2985 37.4085 35.688C37.0188 36.0774 36.5061 36.2892 35.9593 36.2892C35.4124 36.2892 34.8998 36.0774 34.5101 35.688L32.0561 33.2351C31.7895 32.9687 31.7895 32.5382 32.0561 32.2717L32.5415 31.7866L31.3726 30.6183C31.3623 30.6046 31.3538 30.5893 31.3452 30.5739L31.3452 30.5739C31.3367 30.5585 31.3281 30.5431 31.3179 30.5295C30.5181 31.1376 29.5201 31.4997 28.4401 31.4997C25.8015 31.4997 23.6551 29.3543 23.6551 26.717C23.6551 24.0797 25.8015 21.9343 28.4401 21.9343C31.0786 21.9343 33.225 24.0797 33.225 26.717C33.225 27.7965 32.8627 28.7941 32.2544 29.5934C32.2817 29.6139 32.3432 29.6481 32.3432 29.6481L33.5121 30.8164L33.9975 30.3313C34.264 30.0649 34.6947 30.0649 34.9613 30.3313ZM21.2319 26.7504C21.2319 23.0031 24.2843 19.9508 28.0316 19.9508C28.8249 19.9508 29.588 20.0867 30.2982 20.3436V18.3113C30.0564 18.3944 29.8071 18.4397 29.5427 18.4397H14.4323V38.0833H28.0316C29.2178 38.0833 30.2982 37.0104 30.2982 35.8167V33.1573C29.588 33.4141 28.8249 33.5501 28.0316 33.5501C24.2843 33.5501 21.2319 30.4978 21.2319 26.7504ZM13.2666 11.3279C12.6238 11.3279 12.1027 11.849 12.1027 12.4918C12.1027 13.1346 12.6238 13.6557 13.2666 13.6557H26.4576C27.1005 13.6557 27.6216 13.1346 27.6216 12.4918C27.6216 11.849 27.1005 11.3279 26.4576 11.3279H13.2666Z"/>
</mask>
<path fill-rule="evenodd" clip-rule="evenodd" d="M30.6391 14.9709C30.7678 15.1874 30.7517 15.4457 30.6069 15.6552C30.462 15.8578 30.2045 15.9835 29.9228 15.9835H13.0236C10.8026 15.9835 9 14.4192 9 12.4917C9 10.5643 10.8026 9 13.0236 9H29.9228C30.2045 9 30.462 9.1257 30.6069 9.32822C30.7517 9.53773 30.7678 9.79612 30.6391 10.0126L30.116 10.9274C29.5527 11.9051 29.5527 13.0783 30.116 14.056L30.6391 14.9709ZM12.0221 37.9973C10.3524 37.9973 9 36.6449 9 34.9752V16.7596C9.7933 17.568 10.8435 18.1271 12.0221 18.2933V37.9973ZM34.9613 30.3313L37.4085 32.791C37.7981 33.1805 38.01 33.6929 38.01 34.2395C38.01 34.7861 37.7981 35.2985 37.4085 35.688C37.0188 36.0774 36.5061 36.2892 35.9593 36.2892C35.4124 36.2892 34.8998 36.0774 34.5101 35.688L32.0561 33.2351C31.7895 32.9687 31.7895 32.5382 32.0561 32.2717L32.5415 31.7866L31.3726 30.6183C31.3623 30.6046 31.3538 30.5893 31.3452 30.5739L31.3452 30.5739C31.3367 30.5585 31.3281 30.5431 31.3179 30.5295C30.5181 31.1376 29.5201 31.4997 28.4401 31.4997C25.8015 31.4997 23.6551 29.3543 23.6551 26.717C23.6551 24.0797 25.8015 21.9343 28.4401 21.9343C31.0786 21.9343 33.225 24.0797 33.225 26.717C33.225 27.7965 32.8627 28.7941 32.2544 29.5934C32.2817 29.6139 32.3432 29.6481 32.3432 29.6481L33.5121 30.8164L33.9975 30.3313C34.264 30.0649 34.6947 30.0649 34.9613 30.3313ZM21.2319 26.7504C21.2319 23.0031 24.2843 19.9508 28.0316 19.9508C28.8249 19.9508 29.588 20.0867 30.2982 20.3436V18.3113C30.0564 18.3944 29.8071 18.4397 29.5427 18.4397H14.4323V38.0833H28.0316C29.2178 38.0833 30.2982 37.0104 30.2982 35.8167V33.1573C29.588 33.4141 28.8249 33.5501 28.0316 33.5501C24.2843 33.5501 21.2319 30.4978 21.2319 26.7504ZM13.2666 11.3279C12.6238 11.3279 12.1027 11.849 12.1027 12.4918C12.1027 13.1346 12.6238 13.6557 13.2666 13.6557H26.4576C27.1005 13.6557 27.6216 13.1346 27.6216 12.4918C27.6216 11.849 27.1005 11.3279 26.4576 11.3279H13.2666Z" fill="url(#paint0_linear_1502_131)"/>
<path d="M30.6069 15.6552L33.047 17.4005L33.0609 17.381L33.0745 17.3614L30.6069 15.6552ZM30.6391 14.9709L28.0347 16.4599L28.0475 16.4823L28.0606 16.5044L30.6391 14.9709ZM30.6069 9.32822L33.0745 7.6221L33.0609 7.60243L33.047 7.58298L30.6069 9.32822ZM30.6391 10.0126L28.0606 8.47907L28.0475 8.50119L28.0347 8.52353L30.6391 10.0126ZM30.116 10.9274L32.7154 12.4251L32.7203 12.4165L30.116 10.9274ZM30.116 14.056L32.7204 12.567L32.7154 12.5583L30.116 14.056ZM12.0221 37.9973V40.9973H15.0221V37.9973H12.0221ZM9 16.7596L11.1412 14.6583L6 9.41918V16.7596H9ZM12.0221 18.2933H15.0221V15.6867L12.441 15.3227L12.0221 18.2933ZM37.4085 32.791L35.2817 34.9069L35.2876 34.9128L37.4085 32.791ZM34.9613 30.3313L37.088 28.2154L37.0821 28.2095L34.9613 30.3313ZM34.5101 35.688L36.6309 33.5661L36.6309 33.5661L34.5101 35.688ZM32.0561 33.2351L29.9353 35.3569L29.9353 35.3569L32.0561 33.2351ZM32.0561 32.2717L29.9353 30.1499L29.9353 30.1499L32.0561 32.2717ZM32.5415 31.7866L34.6623 33.9085L36.7851 31.7866L34.6623 29.6648L32.5415 31.7866ZM31.3726 30.6183L28.973 32.4189L29.101 32.5894L29.2517 32.7401L31.3726 30.6183ZM31.3452 30.5739L28.6619 31.9155L28.6912 31.9741L28.723 32.0314L31.3452 30.5739ZM31.3452 30.5739L34.0285 29.2322L33.9992 29.1736L33.9673 29.1163L31.3452 30.5739ZM31.3179 30.5295L33.7174 28.7289L31.9054 26.3141L29.5021 28.1414L31.3179 30.5295ZM32.2544 29.5934L29.8671 27.7766L28.0369 30.1814L30.455 31.9939L32.2544 29.5934ZM32.3432 29.6481L34.464 27.5263L34.1669 27.2293L33.7997 27.0254L32.3432 29.6481ZM33.5121 30.8164L31.3913 32.9383L33.5121 35.0581L35.6329 32.9383L33.5121 30.8164ZM33.9975 30.3313L36.1183 32.4532L36.1183 32.4532L33.9975 30.3313ZM30.2982 20.3436L29.2778 23.1648L33.2982 24.6189V20.3436H30.2982ZM30.2982 18.3113H33.2982V14.1077L29.323 15.4742L30.2982 18.3113ZM14.4323 18.4397V15.4397H11.4323V18.4397H14.4323ZM14.4323 38.0833H11.4323V41.0833H14.4323V38.0833ZM30.2982 33.1573H33.2982V28.8819L29.2778 30.3361L30.2982 33.1573ZM33.0745 17.3614C33.8402 16.2539 33.9868 14.7309 33.2175 13.4373L28.0606 16.5044C27.5488 15.6438 27.6632 14.6376 28.1392 13.9491L33.0745 17.3614ZM29.9228 18.9835C31.0541 18.9835 32.2733 18.4822 33.047 17.4005L28.1668 13.91C28.6508 13.2333 29.3549 12.9835 29.9228 12.9835V18.9835ZM13.0236 18.9835H29.9228V12.9835H13.0236V18.9835ZM6 12.4917C6 16.4613 9.5592 18.9835 13.0236 18.9835V12.9835C12.6123 12.9835 12.3105 12.8381 12.1452 12.6946C12.0648 12.6249 12.0277 12.5661 12.0128 12.5355C12 12.5091 12 12.498 12 12.4917H6ZM13.0236 6C9.5592 6 6 8.5222 6 12.4917H12C12 12.4854 12 12.4743 12.0128 12.448C12.0277 12.4174 12.0648 12.3586 12.1452 12.2889C12.3105 12.1454 12.6123 12 13.0236 12V6ZM29.9228 6H13.0236V12H29.9228V6ZM33.047 7.58298C32.2733 6.50123 31.0541 6 29.9228 6V12C29.3549 12 28.6508 11.7502 28.1668 11.0735L33.047 7.58298ZM33.2175 11.5461C33.9868 10.2526 33.8402 8.72961 33.0745 7.6221L28.1392 11.0343C27.6632 10.3458 27.5488 9.33964 28.0606 8.47907L33.2175 11.5461ZM32.7203 12.4165L33.2434 11.5017L28.0347 8.52353L27.5116 9.43836L32.7203 12.4165ZM32.7154 12.5583C32.6952 12.5233 32.6935 12.5018 32.6935 12.4917C32.6935 12.4817 32.6952 12.4602 32.7154 12.4251L27.5166 9.42975C26.4191 11.3345 26.4191 13.649 27.5166 15.5537L32.7154 12.5583ZM33.2434 13.4818L32.7203 12.567L27.5116 15.5451L28.0347 16.4599L33.2434 13.4818ZM6 34.9752C6 38.3017 8.69553 40.9973 12.0221 40.9973V34.9973C12.0164 34.9973 12.014 34.9967 12.0139 34.9967C12.0137 34.9967 12.0137 34.9967 12.0137 34.9967C12.0133 34.9965 12.0102 34.995 12.0062 34.991C12.0023 34.9871 12.0008 34.984 12.0006 34.9835C12.0006 34.9835 12.0006 34.9836 12.0005 34.9834C12.0005 34.9833 12 34.9809 12 34.9752H6ZM6 16.7596V34.9752H12V16.7596H6ZM12.441 15.3227C11.9466 15.2529 11.4935 15.0173 11.1412 14.6583L6.85876 18.8608C8.09309 20.1186 9.74037 21.0012 11.6032 21.2639L12.441 15.3227ZM15.0221 37.9973V18.2933H9.02208V37.9973H15.0221ZM39.5352 30.6751L37.088 28.2154L32.8346 32.4473L35.2817 34.9069L39.5352 30.6751ZM41.01 34.2395C41.01 32.8952 40.4806 31.62 39.5293 30.6692L35.2876 34.9128C35.1156 34.7409 35.01 34.4906 35.01 34.2395H41.01ZM39.5293 37.8098C40.4806 36.8589 41.01 35.5837 41.01 34.2395H35.01C35.01 33.9884 35.1156 33.7381 35.2876 33.5661L39.5293 37.8098ZM35.9593 39.2892C37.3029 39.2892 38.578 38.7606 39.5293 37.8098L35.2876 33.5661C35.4596 33.3942 35.7094 33.2892 35.9593 33.2892V39.2892ZM32.3893 37.8098C33.3406 38.7606 34.6157 39.2892 35.9593 39.2892V33.2892C36.2092 33.2892 36.4589 33.3942 36.6309 33.5661L32.3893 37.8098ZM29.9353 35.3569L32.3893 37.8098L36.6309 33.5661L34.1769 31.1133L29.9353 35.3569ZM29.9353 30.1499C28.4965 31.5881 28.4965 33.9188 29.9353 35.3569L34.1769 31.1133C35.0826 32.0185 35.0826 33.4883 34.1769 34.3936L29.9353 30.1499ZM30.4206 29.6648L29.9353 30.1499L34.1769 34.3936L34.6623 33.9085L30.4206 29.6648ZM29.2517 32.7401L30.4206 33.9085L34.6623 29.6648L33.4934 28.4965L29.2517 32.7401ZM28.723 32.0314C28.7231 32.0315 28.7515 32.0832 28.7861 32.1408C28.8233 32.2027 28.886 32.303 28.973 32.4189L33.7721 28.8177C33.8488 28.9199 33.9022 29.0057 33.9304 29.0527C33.956 29.0953 33.9759 29.1317 33.9674 29.1164L28.723 32.0314ZM28.6619 31.9155L28.6619 31.9155L34.0285 29.2323L34.0285 29.2322L28.6619 31.9155ZM28.9183 32.3301C28.8416 32.2279 28.7883 32.1421 28.7601 32.0952C28.7345 32.0526 28.7146 32.0162 28.7231 32.0314L33.9673 29.1163C33.9672 29.1161 33.9388 29.0644 33.9042 29.0068C33.8671 28.945 33.8044 28.8447 33.7174 28.7289L28.9183 32.3301ZM28.4401 34.4997C30.2013 34.4997 31.8323 33.907 33.1336 32.9176L29.5021 28.1414C29.2039 28.3681 28.8389 28.4997 28.4401 28.4997V34.4997ZM20.6551 26.717C20.6551 31.0125 24.146 34.4997 28.4401 34.4997V28.4997C27.457 28.4997 26.6551 27.6961 26.6551 26.717H20.6551ZM28.4401 18.9343C24.146 18.9343 20.6551 22.4215 20.6551 26.717H26.6551C26.6551 25.7379 27.457 24.9343 28.4401 24.9343V18.9343ZM36.225 26.717C36.225 22.4215 32.7341 18.9343 28.4401 18.9343V24.9343C29.4231 24.9343 30.225 25.7379 30.225 26.717H36.225ZM34.6416 31.4103C35.6317 30.1094 36.225 28.4785 36.225 26.717H30.225C30.225 27.1146 30.0938 27.4787 29.8671 27.7766L34.6416 31.4103ZM32.3432 29.6481C33.7997 27.0254 33.7998 27.0254 33.7999 27.0255C33.7999 27.0255 33.8 27.0255 33.8 27.0256C33.8001 27.0256 33.8002 27.0257 33.8004 27.0257C33.8006 27.0259 33.8008 27.026 33.801 27.0261C33.8014 27.0264 33.8019 27.0266 33.8023 27.0268C33.8031 27.0273 33.8039 27.0277 33.8047 27.0281C33.8062 27.029 33.8076 27.0298 33.8089 27.0305C33.8115 27.032 33.814 27.0334 33.8163 27.0347C33.8203 27.037 33.8265 27.0405 33.8347 27.0454C33.8415 27.0494 33.8594 27.06 33.8844 27.0758C33.8989 27.085 33.967 27.128 34.0537 27.193L30.455 31.9939C30.6166 32.1151 30.771 32.2043 30.7834 32.2115C30.8104 32.2275 30.8337 32.2409 30.8501 32.2502C30.8586 32.2551 30.866 32.2592 30.8721 32.2627C30.8752 32.2644 30.8779 32.2659 30.8804 32.2673C30.8816 32.268 30.8827 32.2686 30.8838 32.2692C30.8843 32.2695 30.8849 32.2698 30.8853 32.27C30.8856 32.2702 30.8858 32.2703 30.8861 32.2704C30.8862 32.2705 30.8863 32.2706 30.8864 32.2706C30.8865 32.2707 30.8866 32.2707 30.8866 32.2707C30.8867 32.2708 30.8868 32.2708 32.3432 29.6481ZM35.6329 28.6946L34.464 27.5263L30.2224 31.7699L31.3913 32.9383L35.6329 28.6946ZM31.8766 28.2095L31.3913 28.6946L35.6329 32.9383L36.1183 32.4532L31.8766 28.2095ZM37.0821 28.2095C35.6441 26.7722 33.3147 26.7722 31.8766 28.2095L36.1183 32.4532C35.2134 33.3576 33.7453 33.3576 32.8405 32.4532L37.0821 28.2095ZM28.0316 16.9508C22.6274 16.9508 18.2319 21.3462 18.2319 26.7504H24.2319C24.2319 24.6599 25.9411 22.9508 28.0316 22.9508V16.9508ZM31.3186 17.5225C30.2785 17.1463 29.17 16.9508 28.0316 16.9508V22.9508C28.4799 22.9508 28.8975 23.0272 29.2778 23.1648L31.3186 17.5225ZM27.2982 18.3113V20.3436H33.2982V18.3113H27.2982ZM29.5427 21.4397C30.1617 21.4397 30.74 21.3317 31.2734 21.1483L29.323 15.4742C29.3442 15.4669 29.3765 15.4577 29.4177 15.4505C29.4593 15.4433 29.5019 15.4397 29.5427 15.4397V21.4397ZM14.4323 21.4397H29.5427V15.4397H14.4323V21.4397ZM17.4323 38.0833V18.4397H11.4323V38.0833H17.4323ZM28.0316 35.0833H14.4323V41.0833H28.0316V35.0833ZM27.2982 35.8167C27.2982 35.5054 27.4291 35.3355 27.4908 35.2739C27.5516 35.2133 27.7199 35.0833 28.0316 35.0833V41.0833C30.8683 41.0833 33.2982 38.6737 33.2982 35.8167H27.2982ZM27.2982 33.1573V35.8167H33.2982V33.1573H27.2982ZM28.0316 36.5501C29.17 36.5501 30.2785 36.3546 31.3186 35.9784L29.2778 30.3361C28.8975 30.4737 28.4799 30.5501 28.0316 30.5501V36.5501ZM18.2319 26.7504C18.2319 32.1547 22.6274 36.5501 28.0316 36.5501V30.5501C25.9411 30.5501 24.2319 28.841 24.2319 26.7504H18.2319ZM15.1027 12.4918C15.1027 13.5059 14.2807 14.3279 13.2666 14.3279V8.3279C10.967 8.3279 9.10273 10.1921 9.10273 12.4918H15.1027ZM13.2666 10.6557C14.2807 10.6557 15.1027 11.4778 15.1027 12.4918H9.10273C9.10273 14.7915 10.967 16.6557 13.2666 16.6557V10.6557ZM26.4576 10.6557H13.2666V16.6557H26.4576V10.6557ZM24.6216 12.4918C24.6216 11.4778 25.4436 10.6557 26.4576 10.6557V16.6557C28.7573 16.6557 30.6216 14.7915 30.6216 12.4918H24.6216ZM26.4576 14.3279C25.4436 14.3279 24.6216 13.5059 24.6216 12.4918H30.6216C30.6216 10.1921 28.7573 8.3279 26.4576 8.3279V14.3279ZM13.2666 14.3279H26.4576V8.3279H13.2666V14.3279Z" fill="#127081" mask="url(#path-1-outside-1_1502_131)"/>
</g>
</g>
<defs>
<filter id="filter0_d_1502_131" x="-24" y="-24" width="95.01" height="95.0833" filterUnits="userSpaceOnUse" color-interpolation-filters="sRGB">
<feFlood flood-opacity="0" result="BackgroundImageFix"/>
<feColorMatrix in="SourceAlpha" type="matrix" values="0 0 0 0 0 0 0 0 0 0 0 0 0 0 0 0 0 0 127 0" result="hardAlpha"/>
<feOffset/>
<feGaussianBlur stdDeviation="15"/>
<feComposite in2="hardAlpha" operator="out"/>
<feColorMatrix type="matrix" values="0 0 0 0 0.0409099 0 0 0 0 0.223218 0 0 0 0 0.254997 0 0 0 0.4 0"/>
<feBlend mode="normal" in2="BackgroundImageFix" result="effect1_dropShadow_1502_131"/>
<feBlend mode="normal" in="SourceGraphic" in2="effect1_dropShadow_1502_131" result="shape"/>
</filter>
<linearGradient id="paint0_linear_1502_131" x1="16.0756" y1="9" x2="34.1854" y2="39.107" gradientUnits="userSpaceOnUse">
<stop stop-color="#B1F3FF"/>
<stop offset="1" stop-color="#F1FDFF"/>
</linearGradient>
<clipPath id="clip0_1502_131">
<rect width="48" height="48" fill="white"/>
</clipPath>
</defs>
</svg>
