<svg width="48" height="48" viewBox="0 0 48 48" fill="none" xmlns="http://www.w3.org/2000/svg">
<path fill-rule="evenodd" clip-rule="evenodd" d="M30.6359 14.97C30.7646 15.1864 30.7485 15.4448 30.6037 15.6543C30.4589 15.8568 30.2014 15.9824 29.9198 15.9824H13.0231C10.8023 15.9824 9 14.4184 9 12.4912C9 10.5641 10.8023 9 13.0231 9H29.9198C30.2014 9 30.4589 9.1257 30.6037 9.3282C30.7485 9.5376 30.7646 9.796 30.6359 10.0125L30.1129 10.9272C29.5497 11.9047 29.5497 13.0777 30.1129 14.0553L30.6359 14.97ZM12.0217 37.9944C10.3522 37.9944 9 36.6422 9 34.9728V16.7598C9.7932 17.5681 10.8432 18.1271 12.0217 18.2933V37.9944ZM34.9569 30.3274L37.4105 32.7799L37.4037 32.7867C37.7933 33.1761 38.0052 33.6885 38.0052 34.235C38.0052 34.7815 37.7933 35.2939 37.4037 35.6833C37.0141 36.0727 36.5015 36.2844 35.9548 36.2844C35.408 36.2844 34.8954 36.0727 34.5058 35.6833L32.0522 33.2308C31.7856 32.9644 31.7856 32.534 32.0522 32.2676L32.5374 31.7825L31.3687 30.6144C31.3585 30.6007 31.3499 30.5853 31.3414 30.57C31.3328 30.5546 31.3243 30.5392 31.314 30.5256C30.5144 31.1335 29.5165 31.4956 28.4366 31.4956C25.7985 31.4956 23.6524 29.3505 23.6524 26.7136C23.6524 24.0767 25.7985 21.9316 28.4366 21.9316C31.0748 21.9316 33.2209 24.0767 33.2209 26.7136C33.2209 27.793 32.8587 28.7904 32.2504 29.5896C32.2777 29.6101 32.3392 29.6443 32.3392 29.6443L33.508 30.8125L33.9932 30.3274C34.2598 30.061 34.6903 30.061 34.9569 30.3274ZM21.2304 26.7465C21.2304 22.9997 24.2822 19.9478 28.029 19.9478C28.8222 19.9478 29.5852 20.0838 30.2953 20.3406V18.3086C30.0535 18.3917 29.8043 18.437 29.5399 18.437H14.4317V38.0777H28.029C29.215 38.0777 30.2953 37.005 30.2953 35.8114V33.1524C29.5852 33.4092 28.8222 33.5452 28.029 33.5452C24.2822 33.5452 21.2304 30.4934 21.2304 26.7465ZM13.2683 11.3281C12.6255 11.3281 12.1045 11.8491 12.1045 12.4919C12.1045 13.1346 12.6255 13.6556 13.2683 13.6556H26.4573C27.1 13.6556 27.6211 13.1346 27.6211 12.4919C27.6211 11.8491 27.1 11.3281 26.4573 11.3281H13.2683Z" fill="white"/>
</svg>
