<svg width="30" height="30" viewBox="0 0 30 30" fill="none" xmlns="http://www.w3.org/2000/svg">
<g opacity="0.7">
<path d="M6.61612 6.61612C7.10427 6.12796 7.89573 6.12796 8.38388 6.61612L15 13.2322L21.6161 6.61612C22.1043 6.12796 22.8957 6.12796 23.3839 6.61612C23.872 7.10427 23.872 7.89573 23.3839 8.38388L16.7678 15L23.3839 21.6161C23.872 22.1043 23.872 22.8957 23.3839 23.3839C22.8957 23.872 22.1043 23.872 21.6161 23.3839L15 16.7678L8.38388 23.3839C7.89573 23.872 7.10427 23.872 6.61612 23.3839C6.12796 22.8957 6.12796 22.1043 6.61612 21.6161L13.2322 15L6.61612 8.38388C6.12796 7.89573 6.12796 7.10427 6.61612 6.61612Z" fill="#051532"/>
</g>
</svg>
