<svg width="18" height="18" viewBox="0 0 18 18" fill="none" xmlns="http://www.w3.org/2000/svg">
<path d="M0.616117 0.616116C1.10427 0.127961 1.89573 0.127961 2.38388 0.616116L9 7.23223L15.6161 0.616116C16.1043 0.127961 16.8957 0.127961 17.3839 0.616116C17.872 1.10427 17.872 1.89573 17.3839 2.38388L10.7678 9L17.3839 15.6161C17.872 16.1043 17.872 16.8957 17.3839 17.3839C16.8957 17.872 16.1043 17.872 15.6161 17.3839L9 10.7678L2.38388 17.3839C1.89573 17.872 1.10427 17.872 0.616117 17.3839C0.127961 16.8957 0.127961 16.1043 0.616117 15.6161L7.23223 9L0.616117 2.38388C0.127961 1.89573 0.127961 1.10427 0.616117 0.616116Z" fill="white"/>
</svg>
