<svg width="25" height="18" viewBox="0 0 25 18" fill="none" xmlns="http://www.w3.org/2000/svg">
<path d="M4.07997 13.5996C4.54945 14.1611 5.07455 14.6606 5.64491 15.1087C6.53732 15.8106 7.51379 16.3491 8.56658 16.7392C8.6403 16.7662 8.64159 16.7851 8.59632 16.8458C8.33377 17.2062 8.07381 17.568 7.81643 17.9324C7.78022 17.9851 7.74272 17.9999 7.68193 17.9972C7.0857 17.9689 6.49852 17.873 5.91781 17.7326C4.68525 17.4357 3.53029 16.9457 2.47622 16.2074C1.85153 15.7687 1.28893 15.2558 0.789697 14.6659C0.761243 14.6322 0.757362 14.5985 0.759948 14.5593C0.796162 13.9816 0.842723 13.4039 0.902217 12.8276C0.964297 12.2215 1.04061 11.6168 1.13502 11.0148C1.42861 9.13726 1.86188 7.29751 2.4982 5.51176C2.87069 4.46568 3.30008 3.4466 3.84458 2.48421C3.9364 2.32088 4.05022 2.19131 4.20025 2.08197C5.28407 1.29235 6.45843 0.701151 7.72978 0.321864C8.24583 0.167989 8.77092 0.0613565 9.30508 0.00196631C9.36069 -0.00478258 9.39173 0.00871536 9.4163 0.065406C9.4758 0.203083 9.54176 0.338061 9.61031 0.471689C9.63876 0.52703 9.64135 0.545927 9.5728 0.563474C8.93001 0.718698 8.30144 0.922515 7.69357 1.19112C6.74684 1.60955 5.88677 2.17646 5.09783 2.8608C4.94909 2.99037 4.80295 3.124 4.6555 3.25628C4.63998 3.26978 4.61799 3.28058 4.61541 3.30892C4.65162 3.31972 4.6762 3.29272 4.70206 3.27788C5.45738 2.87834 6.21786 2.48826 7.00809 2.16701C7.92637 1.79447 8.86922 1.51912 9.84052 1.34904C10.9774 1.15063 12.122 1.09394 13.2718 1.13308C14.8121 1.18437 16.3176 1.45163 17.7726 1.99289C18.7245 2.34653 19.6324 2.8041 20.5313 3.28193C20.5572 3.29542 20.5843 3.30892 20.6115 3.32107C20.6205 3.32512 20.6296 3.33592 20.6361 3.32107C20.6361 3.31972 20.627 3.31162 20.6218 3.30622C20.3709 3.05516 20.0993 2.8284 19.829 2.60029C18.8952 1.81472 17.845 1.25996 16.7082 0.876622C16.3577 0.757842 16.0033 0.653909 15.6463 0.560774C15.5946 0.547277 15.5881 0.532429 15.6114 0.485187C15.6774 0.352909 15.7446 0.22198 15.8015 0.0856526C15.8339 0.00871531 15.8766 -0.00613236 15.9503 0.00196631C16.368 0.0478587 16.7819 0.119397 17.1906 0.22603C18.6366 0.606667 19.9467 1.28426 21.1586 2.18051C21.2142 2.22235 21.2582 2.27229 21.2944 2.33303C21.7083 3.02277 22.0432 3.75435 22.3472 4.50212C22.8076 5.63594 23.1801 6.8008 23.4801 7.9913C23.7621 9.11162 23.9832 10.2441 24.1475 11.39C24.2717 12.2498 24.3622 13.1124 24.4307 13.9789C24.4463 14.1692 24.454 14.3609 24.4695 14.5512C24.4734 14.6066 24.4579 14.6457 24.423 14.6862C23.5008 15.7714 22.3834 16.5705 21.1068 17.1333C20.305 17.487 19.4734 17.7313 18.6146 17.8784C18.255 17.9405 17.8955 17.9864 17.5307 17.9999C17.4829 18.0013 17.4531 17.9891 17.4234 17.9486C17.1583 17.5761 16.8918 17.2049 16.6228 16.8364C16.5776 16.7743 16.6021 16.7649 16.6539 16.746C17.6588 16.3734 18.5978 15.8659 19.4591 15.2086C20.0773 14.7375 20.6425 14.2057 21.1469 13.6037C21.1547 13.5942 21.1612 13.5848 21.1689 13.5767C21.1767 13.574 21.1844 13.5713 21.1922 13.5699C21.1922 13.5699 21.1793 13.5632 21.1741 13.5632C21.1599 13.5645 21.1741 13.574 21.1715 13.5794C21.1521 13.5564 21.1443 13.5794 21.134 13.5902C20.9219 13.7441 20.7124 13.9006 20.4964 14.0491C19.5354 14.7091 18.5072 15.2207 17.4118 15.5851C16.6694 15.8322 15.9128 16.009 15.1419 16.1278C14.0128 16.3005 12.8786 16.3464 11.7404 16.2924C10.244 16.2222 8.78257 15.959 7.37153 15.4286C6.23597 15.002 5.1806 14.4135 4.20542 13.6698C4.16921 13.6415 4.13041 13.6158 4.0929 13.5888C4.08255 13.5767 4.0735 13.5537 4.0541 13.578C4.0528 13.5726 4.06703 13.5632 4.05151 13.5618C4.04634 13.5618 4.03987 13.5659 4.0334 13.5686C4.04116 13.5713 4.04892 13.574 4.05539 13.5767L4.07738 13.6037L4.07997 13.5996ZM7.22538 10.0929C7.23055 10.2252 7.23185 10.3345 7.24607 10.4425C7.32367 11.035 7.55777 11.5412 7.99751 11.9354C8.69203 12.5576 9.71507 12.5063 10.3514 11.8193C10.7006 11.4427 10.9088 10.9959 10.9722 10.4789C11.0692 9.68527 10.8765 8.98474 10.332 8.40838C9.65169 7.6876 8.54459 7.7011 7.87076 8.42863C7.4349 8.8997 7.23831 9.46796 7.22538 10.0916V10.0929ZM18.0067 10.2117C18.0067 9.54219 17.8373 9.01848 17.4855 8.5744C17.135 8.13168 16.6836 7.87792 16.1275 7.87522C15.5713 7.87252 15.12 8.12493 14.7643 8.56361C14.4785 8.9159 14.3103 9.32623 14.2599 9.78245C14.1668 10.6288 14.384 11.3657 15.01 11.9367C15.6942 12.5603 16.7146 12.5063 17.351 11.8287C17.7959 11.3549 17.9976 10.7786 18.0067 10.2103V10.2117ZM4.60765 3.31567C4.60765 3.31567 4.60377 3.31162 4.60248 3.31027C4.60118 3.31432 4.5986 3.31702 4.5973 3.32107C4.5973 3.32242 4.59989 3.32512 4.60248 3.32647C4.60377 3.32242 4.60635 3.31972 4.60765 3.31567Z" fill="url(#paint0_linear_4103_26249)"/>
<defs>
<linearGradient id="paint0_linear_4103_26249" x1="12.6142" y1="0.127343" x2="12.6142" y2="19.002" gradientUnits="userSpaceOnUse">
<stop stop-color="white"/>
<stop offset="1" stop-color="#D9D9D9"/>
</linearGradient>
</defs>
</svg>
