<svg width="84" height="93" viewBox="0 0 84 93" fill="none" xmlns="http://www.w3.org/2000/svg">
<path d="M45.847 52.3164H28.8649V61.4876H45.847V52.3164Z" fill="#F2CB86"/>
<path d="M50.3781 44.7486C48.3126 52.9587 43.7621 56.5267 37.1526 56.5267C30.5431 56.5267 25.1923 51.3129 25.1923 44.8868V37.9896C25.1923 31.5573 30.5496 30.7344 37.1526 30.7344C43.7621 30.7344 52.237 36.9092 52.237 36.9092L50.3781 44.7486Z" fill="#F2CB86"/>
<path d="M50.3781 44.7499L51.7335 39.0273L44.8529 40.2585C38.3532 41.4206 34.0544 47.4887 35.2485 53.8143C35.4292 54.7628 35.6874 55.6485 36.0166 56.4777C36.391 56.5091 36.7718 56.5342 37.1526 56.5342C43.7621 56.5342 48.3126 52.96 50.3781 44.7562V44.7499Z" fill="#F9D68F"/>
<path d="M47.338 59.2891H27.2578V72.6626H47.338V59.2891Z" fill="#FFB715"/>
<path d="M49.0004 65.7969H25.2004V92.3969H49.0004V65.7969Z" fill="#5E5E5E"/>
<path d="M64.8708 2.17224L48.038 13.1016L64.853 37.6296L81.6858 26.7003L64.8708 2.17224Z" fill="#C4833B"/>
<path d="M53.1329 9.56245L47.9509 12.9258L64.7615 37.4567L69.9435 34.0934L53.1329 9.56245Z" fill="#9B622F"/>
<path d="M77.6799 20.8554L60.8525 31.7812L62.8514 34.697L79.6787 23.7712L77.6799 20.8554Z" fill="#52ACBC"/>
<path d="M67.1384 5.47587L50.3036 16.4023L52.302 19.3185L69.1367 8.39199L67.1384 5.47587Z" fill="#FF892A"/>
<path d="M63.242 38.9886C62.5127 37.927 62.8096 36.4948 63.9004 35.785L80.308 25.1313C81.3988 24.4215 82.8704 24.7105 83.5998 25.7721C84.3292 26.8337 84.0323 28.2659 82.9414 28.9757L66.5339 39.6293C65.4431 40.3391 63.9714 40.0502 63.242 38.9886Z" fill="#C4833B"/>
<path d="M66.5339 39.6316L66.592 39.5939C66.2822 39.4243 65.9982 39.1856 65.7852 38.8778C65.0558 37.8162 65.3527 36.384 66.4435 35.6742L82.793 25.0583C82.0378 24.6437 81.0825 24.6374 80.308 25.1337L63.9004 35.7873C62.8096 36.4971 62.5192 37.9293 63.2421 38.9909C63.9714 40.0525 65.4431 40.3352 66.5339 39.6316Z" fill="#9B622F"/>
<path d="M46.2794 14.2401C45.55 13.1785 45.8469 11.7463 46.9378 11.0365L63.3453 0.389162C64.4361 -0.32066 65.9078 -0.031706 66.6372 1.02989C67.3601 2.09148 67.0696 3.52369 65.9788 4.23351L49.5712 14.8871C48.4804 15.5969 47.0088 15.308 46.2794 14.2464V14.2401Z" fill="#C4833B"/>
<path d="M49.3582 14.9948C49.0226 14.8189 48.7192 14.5739 48.4933 14.2473C47.7639 13.1857 48.0609 11.7535 49.1517 11.0437L65.5592 0.390041C65.6302 0.346069 65.7013 0.314661 65.7723 0.276972C65.03 -0.106207 64.1005 -0.099925 63.3453 0.383759L46.9378 11.0374C45.8469 11.7472 45.55 13.1794 46.2794 14.241C46.9636 15.2335 48.2932 15.535 49.3582 14.9885V14.9948Z" fill="#9B622F"/>
<path d="M6.74506 63.4333C4.69896 64.2876 1.98158 63.4395 0.768115 61.6681C-0.451802 59.8967 -0.206528 57.1328 1.38776 55.6189C21.8617 37.2264 33.3831 40.5305 53.8506 22.1442C55.4514 20.6304 58.3366 21.7296 59.55 23.5073C60.7635 25.2788 60.699 28.3002 58.6529 29.1545C33.3444 40.4865 32.047 52.1075 6.73861 63.4395L6.74506 63.4333Z" fill="#C4833B"/>
<path d="M5.7253 63.7088C5.20248 63.3759 4.75066 62.9613 4.41502 62.4714C3.20156 60.7 3.44038 57.936 5.03466 56.4222C25.5086 38.0296 37.0301 41.3337 57.504 22.9412C57.7816 22.6774 58.1043 22.4952 58.4464 22.3821C57.0393 21.3582 55.0706 20.9876 53.8507 22.1434C33.3832 40.5297 21.8618 37.2256 1.39428 55.6181C-0.206462 57.132 -0.445282 59.8959 0.774635 61.6673C1.79446 63.1623 3.87929 63.9915 5.73176 63.7088H5.7253Z" fill="#9B622F"/>
<path d="M46.3762 35.5133C46.9184 36.3111 46.699 37.3852 45.8857 37.9129C45.066 38.4405 43.9622 38.227 43.42 37.4355L40.1476 32.6615C39.6054 31.8637 39.8248 30.7895 40.6381 30.2619C41.4578 29.7342 42.5616 29.9478 43.1038 30.7456L46.3762 35.5196V35.5133Z" fill="#C4833B"/>
<path d="M45.1047 38.1822L40.083 30.8516C39.7668 31.3981 39.7668 32.0953 40.1476 32.6544L43.4201 37.4284C43.8009 37.9875 44.4592 38.2513 45.1047 38.1822Z" fill="#9B622F"/>
<path d="M30.7626 36.4663C30.7626 37.9236 29.5491 39.1046 28.0516 39.1046C26.5542 39.1046 25.3407 37.9236 25.3407 36.4663V27.1695C25.3407 25.7122 26.5542 24.5312 28.0516 24.5312C29.5491 24.5312 30.7626 25.7122 30.7626 27.1695V36.4663Z" fill="#F9D68F"/>
<path d="M29.0263 24.7188C29.4587 25.1836 29.7298 25.7992 29.7298 26.4776V35.7744C29.7298 37.2317 28.5164 38.4127 27.0189 38.4127C26.6768 38.4127 26.3476 38.3436 26.0443 38.2305C26.5413 38.7644 27.2513 39.1099 28.0516 39.1099C29.5491 39.1099 30.7626 37.929 30.7626 36.4716V27.1749C30.7626 26.0505 30.0396 25.1019 29.0263 24.7188Z" fill="#F4CA87"/>
<path d="M36.2748 37.4216C36.2748 38.8789 35.0032 40.0599 33.4347 40.0599C31.8663 40.0599 30.5947 38.8789 30.5947 37.4216V26.1461C30.5947 24.6888 31.8663 23.5078 33.4347 23.5078C35.0032 23.5078 36.2748 24.6888 36.2748 26.1461V37.4216Z" fill="#F9D68F"/>
<path d="M34.674 23.7773C35.0807 24.2359 35.3324 24.8138 35.3324 25.4483V36.7237C35.3324 38.1811 34.0609 39.362 32.4924 39.362C32.047 39.362 31.6275 39.2552 31.2531 39.0856C31.7759 39.6698 32.5505 40.053 33.4348 40.053C35.0032 40.053 36.2748 38.8721 36.2748 37.4147V26.1392C36.2748 25.0965 35.6164 24.2045 34.674 23.7773Z" fill="#F4CA87"/>
<path d="M41.5611 37.0383C41.5611 38.4956 40.3024 39.6766 38.7598 39.6766C37.2107 39.6766 35.952 38.4956 35.952 37.0383V25.3922C35.952 23.9348 37.2107 22.7539 38.7598 22.7539C40.3089 22.7539 41.5611 23.9348 41.5611 25.3922V37.0383Z" fill="#F9D68F"/>
<path d="M40.0959 23.082C40.5348 23.5469 40.8059 24.1499 40.8059 24.822V36.4681C40.8059 37.9255 39.5472 39.1064 37.9981 39.1064C37.5076 39.1064 37.0622 38.9808 36.662 38.7735C37.1784 39.32 37.9207 39.6718 38.7598 39.6718C40.3089 39.6718 41.5611 38.4908 41.5611 37.0335V25.3874C41.5611 24.3886 40.9673 23.528 40.0959 23.082Z" fill="#F4CA87"/>
<path d="M46.9894 36.4663C46.9894 37.9236 45.776 39.1046 44.2785 39.1046C42.781 39.1046 41.5676 37.9236 41.5676 36.4663V27.1695C41.5676 25.7122 42.781 24.5312 44.2785 24.5312C45.776 24.5312 46.9894 25.7122 46.9894 27.1695V36.4663Z" fill="#F9D68F"/>
<path d="M45.5307 24.8461C45.9438 25.311 46.2019 25.9014 46.2019 26.561V35.8578C46.2019 37.3151 44.9885 38.4961 43.491 38.4961C43.0392 38.4961 42.6132 38.3767 42.2388 38.182C42.7358 38.7411 43.4652 39.1054 44.2785 39.1054C45.7759 39.1054 46.9894 37.9244 46.9894 36.4671V27.1703C46.9894 26.1527 46.3956 25.2858 45.5307 24.8398V24.8461Z" fill="#F4CA87"/>
<path d="M49.2292 33.6013C50.7266 33.5259 51.9982 34.644 52.0821 36.0951C52.1595 37.5524 51.0106 38.7899 49.5196 38.8715L39.9797 39.3615C38.4823 39.4369 37.2107 38.3187 37.1268 36.8677C37.0494 35.4104 38.1983 34.1729 39.6893 34.0912L49.2292 33.6013Z" fill="#FFDF97"/>
<path d="M50.1973 37.8676L40.6575 38.3575C39.16 38.4329 37.882 37.3148 37.8045 35.8637C37.7852 35.5057 37.8433 35.1602 37.9594 34.8398C37.4173 35.3549 37.0881 36.0773 37.1268 36.8688C37.2043 38.3261 38.4823 39.4443 39.9797 39.3626L49.5196 38.8726C50.6492 38.8161 51.5722 38.0937 51.9272 37.1201C51.4753 37.5472 50.8751 37.8299 50.1909 37.8676H50.1973Z" fill="#F4CA87"/>
</svg>
