<svg width="20" height="23" viewBox="0 0 20 23" fill="none" xmlns="http://www.w3.org/2000/svg">
<path d="M14.3642 20.4636C14.3642 19.1248 14.3642 17.8088 14.3642 16.4928C14.3642 15.9675 14.2879 15.4551 14.0894 14.9613C13.9413 14.593 13.7291 14.2647 13.3902 13.9693C13.8772 13.8894 14.3352 13.8237 14.7886 13.7366C15.474 13.6053 16.1351 13.4026 16.764 13.1086C17.967 12.5434 18.8662 11.6998 19.3593 10.5251C20.0463 8.88799 20.2172 7.20659 19.6936 5.49665C19.4967 4.85292 19.1471 4.27771 18.683 3.76815C18.5777 3.65397 18.5609 3.56547 18.6128 3.41846C19.0021 2.30799 18.8311 1.22608 18.4051 0.158434C18.3532 0.0271193 18.2555 0.0185553 18.138 0.0157006C17.6098 0.00570932 17.1106 0.137024 16.6221 0.305449C15.9015 0.552377 15.2298 0.890654 14.584 1.27461C14.4405 1.36025 14.3169 1.38736 14.1413 1.34455C12.1506 0.857825 10.137 0.850689 8.13407 1.21894C7.42877 1.34883 6.85629 1.31885 6.24106 0.934901C5.49607 0.469592 4.65338 0.162716 3.75115 0.0371106C3.60307 0.017128 3.4901 0.00285466 3.40155 0L3.12524 0.0913491C3.05654 0.168425 3.00769 0.299739 2.93746 0.512412C2.60771 1.4987 2.58787 2.49212 2.87793 3.48697C2.92067 3.63398 2.8993 3.72961 2.79549 3.84237C1.91616 4.8101 1.50855 5.94055 1.4887 7.20231C1.47344 8.20572 1.57572 9.19486 1.91616 10.1526C2.59397 12.0638 4.06563 13.16 6.0884 13.6852C6.72347 13.8508 7.37076 13.9579 8.07911 14.0307C7.88218 14.2319 7.7112 14.4032 7.58754 14.6073C7.39519 14.9256 7.27 15.2682 7.22726 15.6293C7.20894 15.7763 7.14482 15.8419 7.00742 15.8947C5.34494 16.5271 3.87328 16.0917 2.91151 14.6787C2.45505 14.0092 1.83525 13.5511 0.987973 13.3941C0.725395 13.3455 0.46129 13.3384 0.204819 13.4255C-0.019594 13.5011 -0.0592861 13.6339 0.0842159 13.8137C0.186499 13.9422 0.317788 14.0464 0.462817 14.1291C1.29635 14.6059 1.82303 15.3195 2.19095 16.1374C2.7558 17.392 3.79848 17.9772 5.19838 18.0843C5.83193 18.1328 6.4609 18.07 7.09444 17.9358C7.09444 18.7523 7.07918 19.6586 7.07918 20.4608C7.07918 20.4608 7.12192 23 10.6927 23C14.2634 23 14.3627 20.4608 14.3627 20.4608L14.3642 20.4636Z" fill="url(#paint0_linear_4103_26244)"/>
<defs>
<linearGradient id="paint0_linear_4103_26244" x1="9.99959" y1="0.162716" x2="9.99959" y2="24.2803" gradientUnits="userSpaceOnUse">
<stop stop-color="white"/>
<stop offset="1" stop-color="#D9D9D9"/>
</linearGradient>
</defs>
</svg>
