<svg width="53" height="53" viewBox="0 0 53 53" fill="none" xmlns="http://www.w3.org/2000/svg">
<g opacity="0.95" filter="url(#filter0_d_313_21617)">
<path fill-rule="evenodd" clip-rule="evenodd" d="M32.0761 22.6753C32.0761 24.0277 31.5388 25.3248 30.5825 26.2812C29.6261 27.2375 28.329 27.7748 26.9765 27.7748C25.624 27.7748 24.3269 27.2375 23.3706 26.2812C22.4142 25.3248 21.877 24.0277 21.877 22.6753C21.877 21.3228 22.4142 20.0257 23.3706 19.0693C24.3269 18.113 25.624 17.5757 26.9765 17.5757C28.329 17.5757 29.6261 18.113 30.5825 19.0693C31.5388 20.0257 32.0761 21.3228 32.0761 22.6753Z" fill="white"/>
<path fill-rule="evenodd" clip-rule="evenodd" d="M26.9769 12.4761C19.232 12.4761 12.9531 18.7549 12.9531 26.4999C12.9531 34.2449 19.232 40.5237 26.9769 40.5237C34.7219 40.5237 41.0007 34.2449 41.0007 26.4999C41.0007 18.7549 34.7219 12.4761 26.9769 12.4761ZM15.5029 26.4999C15.5029 29.1644 16.4119 31.6173 17.9354 33.5653C19.0053 32.1603 20.3856 31.0216 21.9684 30.2383C23.5513 29.4549 25.2938 29.0481 27.0598 29.0497C28.803 29.048 30.5236 29.4443 32.0904 30.2083C33.6573 30.9723 35.0291 32.0838 36.1013 33.4582C37.206 32.0095 37.9497 30.3185 38.2711 28.5252C38.5924 26.7319 38.4821 24.8878 37.9493 23.1456C37.4165 21.4034 36.4764 19.8131 35.207 18.5064C33.9375 17.1996 32.3751 16.2139 30.6491 15.6308C28.9231 15.0477 27.083 14.8841 25.2811 15.1533C23.4793 15.4226 21.7675 16.117 20.2873 17.1792C18.8071 18.2414 17.6011 19.6408 16.7692 21.2616C15.9372 22.8824 15.5031 24.678 15.5029 26.4999Z" fill="white"/>
</g>
<defs>
<filter id="filter0_d_313_21617" x="0.953125" y="0.476074" width="52.0469" height="52.0479" filterUnits="userSpaceOnUse" color-interpolation-filters="sRGB">
<feFlood flood-opacity="0" result="BackgroundImageFix"/>
<feColorMatrix in="SourceAlpha" type="matrix" values="0 0 0 0 0 0 0 0 0 0 0 0 0 0 0 0 0 0 127 0" result="hardAlpha"/>
<feOffset/>
<feGaussianBlur stdDeviation="6"/>
<feComposite in2="hardAlpha" operator="out"/>
<feColorMatrix type="matrix" values="0 0 0 0 0 0 0 0 0 0 0 0 0 0 0 0 0 0 0.15 0"/>
<feBlend mode="normal" in2="BackgroundImageFix" result="effect1_dropShadow_313_21617"/>
<feBlend mode="normal" in="SourceGraphic" in2="effect1_dropShadow_313_21617" result="shape"/>
</filter>
</defs>
</svg>
